<svg width="96" height="96" viewBox="0 0 96 96" fill="none" xmlns="http://www.w3.org/2000/svg">
<path d="M40.488 37.872H55.528V39.632H40.488V37.872ZM41.144 29.152H54.888V30.912H41.144V29.152ZM43.656 34.944H52.488V36.576H43.656V34.944ZM51.784 31.968H53.688V41.232C53.688 42.208 53.48 42.72 52.808 43.024C52.152 43.312 51.208 43.344 49.848 43.344C49.752 42.832 49.448 42 49.176 41.536C50.056 41.584 51.112 41.568 51.384 41.552C51.672 41.552 51.784 41.472 51.784 41.216V31.968ZM42.312 31.968H52.536V33.696H44.216V43.328H42.312V31.968ZM46.968 29.68H48.904V38.48H46.968V29.68Z" fill="#FCFAF2"/>
<path d="M43.32 55.184H54.456V57.056H43.32V55.184ZM42.664 59.904H53.848V61.744H42.664V59.904ZM40.808 64.976H55.272V66.848H40.808V64.976ZM47.032 52.288H49.032V65.904H47.032V52.288ZM43.336 52.48L45.32 52.928C44.616 55.408 43.448 57.872 42.2 59.408C41.816 59.072 40.968 58.512 40.472 58.24C41.736 56.896 42.76 54.688 43.336 52.48Z" fill="#FCFAF2"/>
<rect x="0.5" y="0.5" width="95" height="95" rx="47.5" stroke="#FCFAF2"/>
</svg>
