<svg width="339" height="212" viewBox="0 0 339 212" fill="none" xmlns="http://www.w3.org/2000/svg">
<path d="M0.0640001 47L4.376 43.92V8.92L0.0640001 5.56H18.936C28.456 5.56 35.568 10.488 35.568 16.984C35.568 23.816 28.456 28.912 18.936 28.912H11.376V43.92L16.472 47H0.0640001ZM11.376 6.736V27.792H18.208C24.144 27.792 28.288 23.312 28.288 16.984C28.288 10.936 24.144 6.736 18.208 6.736H11.376ZM38.5706 47L42.0426 44.536V7.128L38.1226 5.504L48.7066 0.855997V22.696C52.1786 20.456 56.6586 17.656 59.3466 17.656C63.9386 17.656 67.2426 21.016 67.2426 26.056V44.536L70.7146 47H56.8266L60.5786 44.536V26.392C60.5786 23.256 58.4506 20.848 55.8186 20.848C53.6906 20.848 51.0586 22.136 48.7066 23.48V44.536L52.5146 47H38.5706ZM81.7772 60.664H73.3772L85.5292 47.504L73.0412 21.296L68.8972 18.44H85.3052L80.5452 21.24L88.4412 38.488H89.2812L96.0012 21.24L90.9612 18.44H101.993L97.2892 21.296L86.5372 47.784L81.7772 60.664ZM110.239 63.016C103.183 63.016 97.8632 59.824 97.8632 55.568C97.8632 52.712 100.943 50.528 104.527 49.576V49.072C102.007 48.288 100.495 46.496 100.495 44.2C100.495 41.736 102.511 39.272 105.927 36.696C103.127 34.792 101.391 31.768 101.391 28.464C101.391 22.416 106.655 17.656 113.319 17.656C116.959 17.656 117.967 19.056 121.719 19.056H128.383V21.408H122.335C124.071 23.312 125.079 25.72 125.079 28.464C125.079 34.288 119.871 38.936 113.319 38.936C110.799 38.936 108.503 38.264 106.599 37.088C105.199 38.264 104.303 39.72 104.303 40.952C104.303 42.576 105.647 43.64 107.607 43.64H121.439C125.695 43.64 128.663 45.656 128.663 49.24C128.663 56.52 118.247 63.016 110.239 63.016ZM113.319 38.04C116.623 38.04 118.639 34.568 118.639 28.464C118.639 22.248 116.623 18.552 113.319 18.552C109.847 18.552 107.775 22.192 107.775 28.464C107.775 34.456 109.847 38.04 113.319 38.04ZM114.271 59.544C120.991 59.432 125.863 56.352 125.863 52.6C125.863 50.696 124.575 49.576 121.719 49.576H108.391C105.143 49.576 103.351 51.256 103.351 53.496C103.351 57.024 107.887 59.656 114.271 59.544ZM140.864 12.336H133.304V4.664H140.864V12.336ZM130.56 47L134.088 44.536V23.872L130.168 22.304L140.752 17.656V44.536L144.336 47H130.56ZM157.953 47.672C153.025 47.672 149.833 44.872 150.001 40.168L150.785 22.808L145.521 20.904L150.001 17.264V13.4L156.777 10.32V19H166.241V21.352H156.777V39.776C156.777 42.408 158.793 44.2 161.873 44.2C164.225 44.2 166.857 42.856 168.313 40.84C166.129 44.816 161.985 47.672 157.953 47.672ZM175.732 47.672C171.812 47.672 169.124 45.208 169.124 41.736C169.124 36.248 179.316 32.552 186.932 29.248V26.56C186.932 22.528 184.412 19.672 180.94 19.672C179.652 19.672 178.588 19.952 177.468 20.68C174.276 22.752 176.292 30.256 171.812 30.256C170.132 30.256 168.956 28.968 168.956 27.176C168.956 22.304 180.436 17.656 184.636 17.656C189.956 17.656 193.54 21.184 193.54 26.336V42.576L197.236 43.64L186.932 47.672V41.176C183.628 44.76 179.764 47.672 175.732 47.672ZM180.156 44.088C182.62 44.088 184.86 42.24 186.932 39.888V30.2C180.772 32.776 175.676 35.464 175.676 39.664C175.676 42.296 177.524 44.088 180.156 44.088ZM198.913 47L202.385 44.536V7.072L198.521 5.504L209.105 0.855997V44.536L212.577 47H198.913ZM0.0640001 120L4.376 116.808V81.92L0.0640001 78.56H33.552V79.624L35.12 90.992L26.608 79.736H11.376V97.824H20.784L25.264 90.6V106.224L20.784 98.944H11.376V116.92L16.472 120H0.0640001ZM40.0524 120.672C36.1324 120.672 33.4444 118.208 33.4444 114.736C33.4444 109.248 43.6364 105.552 51.2524 102.248V99.56C51.2524 95.528 48.7324 92.672 45.2604 92.672C43.9724 92.672 42.9084 92.952 41.7884 93.68C38.5964 95.752 40.6124 103.256 36.1324 103.256C34.4524 103.256 33.2764 101.968 33.2764 100.176C33.2764 95.304 44.7564 90.656 48.9564 90.656C54.2764 90.656 57.8604 94.184 57.8604 99.336V115.576L61.5564 116.64L51.2524 120.672V114.176C47.9484 117.76 44.0844 120.672 40.0524 120.672ZM44.4764 117.088C46.9404 117.088 49.1804 115.24 51.2524 112.888V103.2C45.0924 105.776 39.9964 108.464 39.9964 112.664C39.9964 115.296 41.8444 117.088 44.4764 117.088ZM75.2108 120.672C72.1308 120.672 68.2108 120.168 65.3548 119.272V118.208L63.8988 108.688C65.6908 113.28 70.3388 119.664 76.2748 119.664C79.5228 119.664 81.8188 117.592 81.8188 114.568C81.8188 107.232 64.9068 110.2 64.9068 99.728C64.9068 94.52 69.3868 90.656 75.8828 90.656C78.9068 90.656 82.0988 91.328 84.2268 92.336V93.344L85.3468 101.184C82.4908 95.696 79.0748 91.664 74.4828 91.664C71.3468 91.664 69.1068 93.568 69.1068 96.312C69.1068 103.536 86.0748 100.344 86.0748 111.488C86.0748 116.864 81.8748 120.672 75.2108 120.672ZM88.7737 120L92.2457 117.536V80.128L88.3257 78.504L98.9097 73.856V95.696C102.382 93.456 106.862 90.656 109.55 90.656C114.142 90.656 117.446 94.016 117.446 99.056V117.536L120.918 120H107.03L110.782 117.536V99.392C110.782 96.256 108.654 93.848 106.022 93.848C103.894 93.848 101.262 95.136 98.9097 96.48V117.536L102.718 120H88.7737ZM133.591 85.336H126.031V77.664H133.591V85.336ZM123.287 120L126.815 117.536V96.872L122.895 95.304L133.479 90.656V117.536L137.063 120H123.287ZM154.429 120.672C146.197 120.672 139.421 113.84 139.421 105.44C139.421 97.32 146.197 90.656 154.429 90.656C162.661 90.656 169.325 97.32 169.325 105.44C169.325 113.84 162.661 120.672 154.429 120.672ZM154.429 119.776C159.357 119.776 162.213 114.736 162.213 105.496C162.213 96.592 159.413 91.552 154.429 91.552C149.389 91.552 146.589 96.424 146.589 105.496C146.589 114.624 149.389 119.776 154.429 119.776ZM172.068 120L175.596 117.536V96.928L171.676 95.304L182.26 90.656V95.696C185.732 93.456 190.212 90.656 192.844 90.656C197.492 90.656 200.796 94.016 200.796 99.056V117.536L204.268 120H190.324L194.132 117.536V99.392C194.132 96.256 192.004 93.848 189.316 93.848C187.188 93.848 184.612 95.136 182.26 96.48V117.536L186.012 120H172.068ZM218.048 120L222.36 116.92V81.64L218.048 78.56H233.728L229.36 81.64V116.92L233.728 120H218.048ZM247.75 120.672C242.822 120.672 239.63 117.872 239.798 113.168L240.582 95.808L235.318 93.904L239.798 90.264V86.4L246.574 83.32V92H256.038V94.352H246.574V112.776C246.574 115.408 248.59 117.2 251.67 117.2C254.022 117.2 256.654 115.856 258.11 113.84C255.926 117.816 251.782 120.672 247.75 120.672ZM271.699 120.672C263.747 120.672 258.147 114.96 258.147 106.336C258.147 97.152 263.915 90.656 271.867 90.656C278.531 90.656 283.067 95.024 283.067 101.464V101.912H264.923C264.923 102.528 264.867 103.088 264.867 103.704C264.867 110.872 268.731 115.968 274.667 115.968C279.203 115.968 282.339 113.28 283.907 108.128C282.731 115.968 278.083 120.672 271.699 120.672ZM265.035 101.016H274.891C276.291 101.016 276.795 100.12 276.795 98.72C276.795 94.912 274.723 91.552 271.867 91.552C268.395 91.552 265.707 95.304 265.035 101.016ZM286.31 120L289.838 117.536V96.928L285.918 95.304L296.502 90.656V95.08C299.862 92.896 303.782 90.656 306.19 90.656C309.494 90.656 312.238 92.504 313.47 95.472C316.886 93.232 321.198 90.656 323.83 90.656C328.31 90.656 331.726 94.016 331.726 99.056V117.536L335.198 120H321.31L325.062 117.536V99.392C325.062 96.256 322.934 93.848 320.246 93.848C318.286 93.848 315.934 94.856 313.694 96.144C313.974 97.04 314.086 97.992 314.086 99.056V117.536L317.782 120H303.67L307.478 117.536V99.392C307.478 96.256 305.35 93.848 302.718 93.848C300.87 93.848 298.574 94.744 296.502 95.92V117.536L300.254 120H286.31ZM145.05 195.704L140.906 198.672V158.128L136.986 156.504L147.57 151.856V173.472C150.594 171.4 154.794 168.656 157.706 168.656C164.874 168.656 169.746 174.424 169.746 182.824C169.746 192.12 163.978 198.672 154.85 198.672C151.434 198.672 147.738 197.552 145.05 195.704ZM154.906 197.776C159.498 197.776 162.634 192.4 162.634 184.784C162.634 177.168 158.882 171.904 153.898 171.904C152.218 171.904 150.034 172.912 147.57 174.368V189.936C148.13 194.808 151.266 197.776 154.906 197.776ZM182.797 211.664H174.397L186.549 198.504L174.061 172.296L169.917 169.44H186.325L181.565 172.24L189.461 189.488H190.301L197.021 172.24L191.981 169.44H203.013L198.309 172.296L187.557 198.784L182.797 211.664ZM229.36 198H215.696L221.52 194.416L234.12 178.4L221.408 160.088L216.088 156.56H236.192L229.976 160.088L239.216 173.416H240.112L249.968 160.088L243.64 156.56H257.304L251.592 160.088L240.336 175.096L253.72 194.416L259.096 198H239.048L245.264 194.472L235.24 179.968H234.288L223.088 194.472L229.36 198ZM260.552 198L264.864 194.92V159.92L260.552 156.56H278.92C288.104 156.56 294.6 160.984 294.6 166.64C294.6 171.4 290.12 175.432 283.4 176.832V177.784L301.208 198H292.192L275.056 177.616H271.864V194.92L276.232 198H260.552ZM271.864 157.736V176.44H277.352C283.624 176.44 287.432 172.408 287.432 166.864C287.432 161.432 283.736 157.736 277.744 157.736H271.864ZM309.877 198L314.973 194.92V157.736H307.805L298.677 169.664L300.581 157.624V156.56H336.365V157.624L338.269 169.664L329.141 157.736H321.973V194.92L327.069 198H309.877Z" fill="#FCFAF2"/>
<path d="M2.02734 198V153.619H10.2314L22.25 160.733C24.6113 162.156 26.3369 161.097 26.3369 158.372V153.619H34.541V198H26.3369V174.689C26.3369 172.843 25.6709 171.541 24.0361 170.603L14.3184 164.82C11.957 163.458 10.2314 164.457 10.2314 167.182V198H2.02734ZM59.3628 198.817C48.9487 198.817 41.9859 192.369 41.9859 182.621V168.907C41.9859 159.25 48.9487 152.802 59.3628 152.802C69.7769 152.802 76.7095 159.25 76.7095 168.907V182.621C76.7095 192.369 69.7769 198.817 59.3628 198.817ZM50.19 182.076C50.19 187.768 53.853 191.552 59.3628 191.552C64.8726 191.552 68.5357 187.768 68.5357 182.076V169.543C68.5357 163.852 64.8726 160.067 59.3628 160.067C53.853 160.067 50.19 163.852 50.19 169.543V182.076ZM84.1846 198V153.619H92.3887V162.55C92.3887 164.518 93.8721 166.001 95.8399 166.001H105.043C107.011 166.001 108.494 164.518 108.494 162.55V153.619H116.698V198H108.494V176.415C108.494 174.447 107.011 172.964 105.043 172.964H95.8399C93.8721 172.964 92.3887 174.447 92.3887 176.415V198H84.1846Z" fill="#95FE1A"/>
</svg>
