<svg width="431" height="138" viewBox="0 0 431 138" fill="none" xmlns="http://www.w3.org/2000/svg">
<path d="M0.0640001 47L4.376 43.92V8.92L0.0640001 5.56H18.936C28.456 5.56 35.568 10.488 35.568 16.984C35.568 23.816 28.456 28.912 18.936 28.912H11.376V43.92L16.472 47H0.0640001ZM11.376 6.736V27.792H18.208C24.144 27.792 28.288 23.312 28.288 16.984C28.288 10.936 24.144 6.736 18.208 6.736H11.376ZM38.5706 47L42.0426 44.536V7.128L38.1226 5.504L48.7066 0.855997V22.696C52.1786 20.456 56.6586 17.656 59.3466 17.656C63.9386 17.656 67.2426 21.016 67.2426 26.056V44.536L70.7146 47H56.8266L60.5786 44.536V26.392C60.5786 23.256 58.4506 20.848 55.8186 20.848C53.6906 20.848 51.0586 22.136 48.7066 23.48V44.536L52.5146 47H38.5706ZM81.7772 60.664H73.3772L85.5292 47.504L73.0412 21.296L68.8972 18.44H85.3052L80.5452 21.24L88.4412 38.488H89.2812L96.0012 21.24L90.9612 18.44H101.993L97.2892 21.296L86.5372 47.784L81.7772 60.664ZM110.239 63.016C103.183 63.016 97.8632 59.824 97.8632 55.568C97.8632 52.712 100.943 50.528 104.527 49.576V49.072C102.007 48.288 100.495 46.496 100.495 44.2C100.495 41.736 102.511 39.272 105.927 36.696C103.127 34.792 101.391 31.768 101.391 28.464C101.391 22.416 106.655 17.656 113.319 17.656C116.959 17.656 117.967 19.056 121.719 19.056H128.383V21.408H122.335C124.071 23.312 125.079 25.72 125.079 28.464C125.079 34.288 119.871 38.936 113.319 38.936C110.799 38.936 108.503 38.264 106.599 37.088C105.199 38.264 104.303 39.72 104.303 40.952C104.303 42.576 105.647 43.64 107.607 43.64H121.439C125.695 43.64 128.663 45.656 128.663 49.24C128.663 56.52 118.247 63.016 110.239 63.016ZM113.319 38.04C116.623 38.04 118.639 34.568 118.639 28.464C118.639 22.248 116.623 18.552 113.319 18.552C109.847 18.552 107.775 22.192 107.775 28.464C107.775 34.456 109.847 38.04 113.319 38.04ZM114.271 59.544C120.991 59.432 125.863 56.352 125.863 52.6C125.863 50.696 124.575 49.576 121.719 49.576H108.391C105.143 49.576 103.351 51.256 103.351 53.496C103.351 57.024 107.887 59.656 114.271 59.544ZM140.864 12.336H133.304V4.664H140.864V12.336ZM130.56 47L134.088 44.536V23.872L130.168 22.304L140.752 17.656V44.536L144.336 47H130.56ZM157.953 47.672C153.025 47.672 149.833 44.872 150.001 40.168L150.785 22.808L145.521 20.904L150.001 17.264V13.4L156.777 10.32V19H166.241V21.352H156.777V39.776C156.777 42.408 158.793 44.2 161.873 44.2C164.225 44.2 166.857 42.856 168.313 40.84C166.129 44.816 161.985 47.672 157.953 47.672ZM175.732 47.672C171.812 47.672 169.124 45.208 169.124 41.736C169.124 36.248 179.316 32.552 186.932 29.248V26.56C186.932 22.528 184.412 19.672 180.94 19.672C179.652 19.672 178.588 19.952 177.468 20.68C174.276 22.752 176.292 30.256 171.812 30.256C170.132 30.256 168.956 28.968 168.956 27.176C168.956 22.304 180.436 17.656 184.636 17.656C189.956 17.656 193.54 21.184 193.54 26.336V42.576L197.236 43.64L186.932 47.672V41.176C183.628 44.76 179.764 47.672 175.732 47.672ZM180.156 44.088C182.62 44.088 184.86 42.24 186.932 39.888V30.2C180.772 32.776 175.676 35.464 175.676 39.664C175.676 42.296 177.524 44.088 180.156 44.088ZM198.913 47L202.385 44.536V7.072L198.521 5.504L209.105 0.855997V44.536L212.577 47H198.913ZM226.416 47L230.728 43.808V8.92L226.416 5.56H259.904V6.624L261.472 17.992L252.96 6.736H237.728V24.824H247.136L251.616 17.6V33.224L247.136 25.944H237.728V43.92L242.824 47H226.416ZM266.404 47.672C262.484 47.672 259.796 45.208 259.796 41.736C259.796 36.248 269.988 32.552 277.604 29.248V26.56C277.604 22.528 275.084 19.672 271.612 19.672C270.324 19.672 269.26 19.952 268.14 20.68C264.948 22.752 266.964 30.256 262.484 30.256C260.804 30.256 259.628 28.968 259.628 27.176C259.628 22.304 271.108 17.656 275.308 17.656C280.628 17.656 284.212 21.184 284.212 26.336V42.576L287.908 43.64L277.604 47.672V41.176C274.3 44.76 270.436 47.672 266.404 47.672ZM270.828 44.088C273.292 44.088 275.532 42.24 277.604 39.888V30.2C271.444 32.776 266.348 35.464 266.348 39.664C266.348 42.296 268.196 44.088 270.828 44.088ZM301.562 47.672C298.482 47.672 294.562 47.168 291.706 46.272V45.208L290.25 35.688C292.042 40.28 296.69 46.664 302.626 46.664C305.874 46.664 308.17 44.592 308.17 41.568C308.17 34.232 291.258 37.2 291.258 26.728C291.258 21.52 295.738 17.656 302.234 17.656C305.258 17.656 308.45 18.328 310.578 19.336V20.344L311.698 28.184C308.842 22.696 305.426 18.664 300.834 18.664C297.698 18.664 295.458 20.568 295.458 23.312C295.458 30.536 312.426 27.344 312.426 38.488C312.426 43.864 308.226 47.672 301.562 47.672ZM315.125 47L318.597 44.536V7.128L314.677 5.504L325.261 0.855997V22.696C328.733 20.456 333.213 17.656 335.901 17.656C340.493 17.656 343.797 21.016 343.797 26.056V44.536L347.269 47H333.381L337.133 44.536V26.392C337.133 23.256 335.005 20.848 332.373 20.848C330.245 20.848 327.613 22.136 325.261 23.48V44.536L329.069 47H315.125ZM359.942 12.336H352.382V4.664H359.942V12.336ZM349.638 47L353.166 44.536V23.872L349.246 22.304L359.83 17.656V44.536L363.414 47H349.638ZM380.78 47.672C372.548 47.672 365.772 40.84 365.772 32.44C365.772 24.32 372.548 17.656 380.78 17.656C389.012 17.656 395.676 24.32 395.676 32.44C395.676 40.84 389.012 47.672 380.78 47.672ZM380.78 46.776C385.708 46.776 388.564 41.736 388.564 32.496C388.564 23.592 385.764 18.552 380.78 18.552C375.74 18.552 372.94 23.424 372.94 32.496C372.94 41.624 375.74 46.776 380.78 46.776ZM398.42 47L401.948 44.536V23.928L398.028 22.304L408.612 17.656V22.696C412.084 20.456 416.564 17.656 419.196 17.656C423.844 17.656 427.148 21.016 427.148 26.056V44.536L430.62 47H416.676L420.484 44.536V26.392C420.484 23.256 418.356 20.848 415.668 20.848C413.54 20.848 410.964 22.136 408.612 23.48V44.536L412.364 47H398.42Z" fill="#FCFAF2"/>
<path d="M1.92969 125V82.0508H9.86914L21.5 88.9355C23.7852 90.3125 25.4551 89.2871 25.4551 86.6504V82.0508H33.3945V125H25.4551V102.441C25.4551 100.654 24.8105 99.3945 23.2285 98.4863L13.8242 92.8906C11.5391 91.5723 9.86914 92.5391 9.86914 95.1758V125H1.92969ZM57.4156 125.791C47.3375 125.791 40.5992 119.551 40.5992 110.117V96.8457C40.5992 87.5 47.3375 81.2598 57.4156 81.2598C67.4938 81.2598 74.2027 87.5 74.2027 96.8457V110.117C74.2027 119.551 67.4938 125.791 57.4156 125.791ZM48.5387 109.59C48.5387 115.098 52.0836 118.76 57.4156 118.76C62.7477 118.76 66.2926 115.098 66.2926 109.59V97.4609C66.2926 91.9531 62.7477 88.291 57.4156 88.291C52.0836 88.291 48.5387 91.9531 48.5387 97.4609V109.59ZM81.4367 125V82.0508H89.3762V90.6934C89.3762 92.5977 90.8117 94.0332 92.716 94.0332H101.622C103.527 94.0332 104.962 92.5977 104.962 90.6934V82.0508H112.902V125H104.962V104.111C104.962 102.207 103.527 100.771 101.622 100.771H92.716C90.8117 100.771 89.3762 102.207 89.3762 104.111V125H81.4367ZM132.379 125V82.0508H139.967V96.7578C141.403 95.2637 143.395 94.4141 145.856 94.4141C150.836 94.4141 154.323 97.9883 154.323 103.467V116.475C154.323 121.953 150.836 125.527 145.856 125.527C143.395 125.527 141.403 124.678 139.967 123.184V125H132.379ZM139.967 115.391C139.967 117.617 141.286 119.053 143.336 119.053C145.358 119.053 146.676 117.617 146.676 115.391V104.551C146.676 102.324 145.358 100.889 143.336 100.889C141.286 100.889 139.967 102.324 139.967 104.551V115.391ZM174.77 95H182.885L175.619 137.012H168.471L169.73 128.604C170.053 126.67 168.969 125 166.508 125H163.93L158.744 95H167.094L170.287 117.852C170.346 118.408 170.639 118.701 170.932 118.701C171.225 118.701 171.547 118.408 171.605 117.852L174.77 95ZM213.202 97.9297C213.378 98.3105 213.759 99.0723 214.579 99.0723C215.488 99.0723 215.839 98.3105 215.956 97.9883L222.929 82.0508H231.63L223.046 100.713C222.695 101.416 222.577 102.031 222.577 102.676C222.577 103.35 222.753 104.053 223.046 104.785L231.63 125H222.929L216.015 107.949C215.839 107.539 215.429 106.631 214.579 106.631C213.7 106.631 213.261 107.539 213.085 107.949L206.113 125H197.441L205.937 104.785C206.259 104.053 206.435 103.35 206.435 102.676C206.435 102.031 206.259 101.416 205.937 100.713L197.441 82.0508H206.113L213.202 97.9297ZM236.872 125V82.0508H261.13C266.579 82.0508 270.534 86.0059 270.534 91.3965C270.534 96.7871 266.579 100.771 261.13 100.771H259.489C258.317 100.771 257.761 101.357 257.761 102.09C257.761 102.441 257.907 102.852 258.112 103.232L270.182 125H261.012L248.825 102.5C248.561 102.031 247.917 100.771 246.598 100.771C245.046 100.771 244.811 102.031 244.811 102.91V125H236.872ZM244.811 91.3965C244.811 93.0078 245.954 94.0332 247.858 94.0332H259.577C261.481 94.0332 262.624 93.0078 262.624 91.3965C262.624 89.7852 261.481 88.7598 259.577 88.7598H247.858C245.954 88.7598 244.811 89.7852 244.811 91.3965ZM284.653 92.4219C284.653 90.3125 283.1 88.7598 280.991 88.7598H273.608V82.0508H303.608V88.7598H295.932C294.028 88.7598 292.563 90.1953 292.563 92.1289V125H284.653V92.4219Z" fill="#95FE1A"/>
</svg>
