<svg width="134" height="48" viewBox="0 0 134 48" fill="none" xmlns="http://www.w3.org/2000/svg">
<g clip-path="url(#clip0_571_392)">
<path d="M0 41.9961C0.0350281 42.1404 0.0700562 42.2891 0.109463 42.4552C0.109463 42.3809 0.122598 42.3197 0.11822 42.2628C0.0875703 41.7075 0.249575 41.1915 0.446608 40.6843C0.739969 39.9234 1.19096 39.2544 1.69448 38.6203C2.49575 37.6058 3.39335 36.6832 4.37413 35.8436C5.22794 35.1133 6.10803 34.4224 7.04941 33.8059C7.66678 33.3992 8.32355 33.0581 8.98471 32.7302C9.77284 32.341 10.5654 31.9649 11.3622 31.602C12.8203 30.9373 14.2827 30.2814 15.7845 29.7217C16.091 29.608 16.3581 29.4375 16.6165 29.2495C17.3871 28.6941 18.1796 28.1781 19.0509 27.7889C19.7909 27.4566 20.5484 27.1855 21.3146 26.9231C22.7858 26.4159 24.2789 26.0005 25.7938 25.655C26.6564 25.4583 27.5277 25.3008 28.3947 25.1434C28.7449 25.0778 29.0996 25.0516 29.4499 25.0122C30.0016 24.9466 30.5533 24.8679 31.1093 24.8155C31.8318 24.7499 32.5586 24.7193 33.2854 24.7717C34.078 24.8286 34.8617 24.9379 35.6411 25.1128C35.987 25.1915 36.3066 25.3227 36.5956 25.5195C36.6963 25.5894 36.8014 25.6419 36.9284 25.6288C37.1517 25.6069 37.3181 25.7075 37.4713 25.8474C37.6246 25.9917 37.7734 26.136 37.9267 26.276C38.4696 26.7657 39.0651 27.1942 39.6562 27.6228C40.2955 28.0863 40.9303 28.5454 41.5696 29.0089C42.095 29.3938 42.6642 29.6998 43.2378 30.0016C44.0391 30.4214 44.8447 30.8411 45.6547 31.2434C46.259 31.5452 46.8807 31.8119 47.4937 32.1005C47.7083 32.2011 47.9141 32.3148 48.1286 32.4285C48.1899 32.3672 48.1636 32.3104 48.1286 32.2623C48.0454 32.1574 47.9622 32.0568 47.879 31.9562C47.4893 31.4752 47.0953 30.9986 46.7056 30.5176C46.0838 29.7479 45.4665 28.9783 44.8447 28.2087C44.1879 27.391 43.518 26.5777 42.8788 25.7469C42.3665 25.0778 41.8717 24.3957 41.3988 23.7004C40.5144 22.4017 39.6343 21.0942 38.7849 19.7736C37.9967 18.5536 37.2655 17.2943 36.565 16.0174C35.8162 14.6575 35.1814 13.2451 34.5815 11.8152C34.2619 11.0456 33.9335 10.2803 33.6007 9.5151C33.4825 9.24398 33.4693 8.98162 33.5876 8.71051C33.9904 7.78348 34.6472 7.1057 35.5754 6.69028C35.6761 6.64655 35.7856 6.62032 35.895 6.59408C36.2191 6.52412 36.4336 6.63343 36.565 6.93953C36.727 7.31559 36.8846 7.69602 37.0466 8.07208C37.6333 9.46262 38.1894 10.8619 38.8724 12.2131C39.5861 13.6299 40.3699 15.0073 41.2149 16.3498C41.9111 17.4517 42.6248 18.5361 43.3298 19.6293C43.4086 19.7518 43.4786 19.8786 43.5618 20.0141C43.6144 19.966 43.6581 19.9311 43.6932 19.8917C44.6564 18.781 45.808 17.9196 47.1522 17.3161C47.6732 17.0844 48.203 16.8657 48.7285 16.6471C48.8948 16.5771 49.0306 16.4853 49.1488 16.3498C49.4991 15.9562 49.9063 15.6282 50.3792 15.3965C51.5001 14.8455 52.5947 14.2508 53.7462 13.7611C54.6438 13.3806 55.5414 12.9958 56.4959 12.7684C57.1133 12.6198 57.7351 12.5148 58.3612 12.4055C58.8209 12.3268 59.2807 12.2568 59.7448 12.2087C60.3447 12.1475 60.9445 12.0513 61.5488 12.0076C62.4639 11.9464 63.3746 11.9332 64.2897 11.942C64.7713 11.9464 65.2486 11.9901 65.7302 12.0163C65.8616 12.0251 65.9973 12.0251 66.1287 12.0251C66.7023 12.0251 67.2671 12.0994 67.8363 12.1781C68.2216 12.2306 68.6113 12.2787 68.9835 12.3968C69.4958 12.5629 69.9949 12.7466 70.4809 12.9783C70.84 13.1489 71.1421 13.3938 71.4004 13.6911C71.7244 14.0672 71.8076 14.5001 71.7113 14.9767C71.6062 15.4883 71.3873 15.9475 71.0808 16.3716C70.3977 17.3118 69.5352 18.0639 68.62 18.7679C67.9326 19.297 67.1708 19.6774 66.3914 20.0404C65.3011 20.552 64.2109 21.068 63.1119 21.5621C62.3675 21.8944 61.6057 22.1787 60.8219 22.4148C59.9812 22.6684 59.1493 22.9526 58.3043 23.18C57.2841 23.4555 56.2508 23.6873 55.2218 23.9322C54.6132 24.0765 54.0002 24.212 53.3872 24.3344C52.6516 24.4788 51.9073 24.5924 51.1673 24.7324C50.042 24.9466 48.908 24.9423 47.7696 24.9335C47.6951 24.9335 47.6163 24.916 47.5419 24.9117C47.4675 24.9117 47.3974 24.9117 47.3186 24.9117C47.3055 25.0385 47.3843 25.0866 47.4324 25.1478C47.8878 25.7162 48.3519 26.2847 48.8073 26.8532C49.3064 27.4697 49.8012 28.0907 50.3047 28.7029C51.0184 29.5687 51.7234 30.4388 52.4633 31.2828C53.1595 32.0743 53.9082 32.8089 54.7358 33.4648C55.0904 33.7447 55.4363 34.0376 55.7735 34.3394C55.9355 34.4837 56.0625 34.6542 56.207 34.816C56.2464 34.8597 56.2858 34.8991 56.3296 34.9428C56.3427 34.9384 56.3558 34.9341 56.369 34.9253C56.369 34.8466 56.3909 34.7592 56.369 34.6892C56.2245 34.2694 56.2113 33.8321 56.1369 33.3992C56.0844 33.0931 56.045 32.7827 56.0056 32.4722C55.9661 32.1836 55.9311 31.895 55.883 31.6064C55.8085 31.121 55.7428 30.6313 55.6509 30.1459C55.4889 29.2888 55.305 28.4317 55.1386 27.5747C55.0861 27.2948 55.0642 27.0106 55.0423 26.7264C55.0029 26.2585 55.1868 25.8562 55.4407 25.4801C55.7779 24.9816 56.207 24.5837 56.7149 24.2645C56.9688 24.1071 57.2447 24.024 57.5337 23.9671C57.7438 23.9234 58.0065 24.0896 58.0722 24.3082C58.1116 24.4481 58.1423 24.5924 58.1423 24.7367C58.1423 25.2571 58.2824 25.7512 58.3787 26.2585C58.5144 26.9669 58.6677 27.6709 58.8078 28.3793C58.8516 28.5979 58.8691 28.8209 58.8998 29.0396C58.9611 29.4725 59.018 29.9054 59.0836 30.3383C59.1493 30.7843 59.2194 31.2303 59.2851 31.6763C59.3288 31.9868 59.3682 32.2929 59.4164 32.6034C59.4252 32.6558 59.4427 32.7083 59.469 32.787C59.5259 32.7346 59.5697 32.6996 59.6003 32.6602C60.7519 31.1997 61.8465 29.6999 62.9367 28.1956C63.703 27.1374 64.4999 26.0967 65.2836 25.0516C65.5682 24.6712 65.8528 24.2951 66.1549 23.9322C66.5446 23.4686 66.9475 23.0182 67.3547 22.5678C67.74 22.1393 68.1297 21.7108 68.5325 21.2954C69.4301 20.3683 70.3802 19.5025 71.5055 18.8422C71.9477 18.5842 72.4118 18.3831 72.9241 18.3C73.1781 18.2607 73.4277 18.2738 73.6641 18.3656C73.9312 18.4662 74.1414 18.6761 74.1151 19.0171C74.1063 19.1352 74.1019 19.2533 74.0757 19.367C73.9618 19.8611 73.848 20.3552 73.721 20.845C73.6291 21.1992 73.5196 21.5534 73.4058 21.9032C73.1299 22.7559 72.8453 23.6042 72.5695 24.4569C72.4206 24.9117 72.2761 25.3664 72.1316 25.8256C72.0791 25.9961 72.0353 26.171 71.9959 26.3503C71.9871 26.3984 72.0046 26.4552 72.0178 26.5077C72.0221 26.534 72.044 26.5558 72.0659 26.5777C72.333 26.8794 72.3243 27.2117 72.171 27.5528C71.8076 28.3705 71.2209 28.9871 70.4328 29.4069C70.2313 29.5162 70.0124 29.5949 69.7803 29.6124C69.6578 29.6255 69.5439 29.5993 69.4476 29.5206C69.1148 29.2669 68.909 28.9434 68.9046 28.5148C68.9003 28.1475 68.9966 27.7977 69.0973 27.4522C69.3381 26.6564 69.5921 25.8605 69.846 25.0691C70.0825 24.3344 70.3408 23.6086 70.5685 22.8739C70.6867 22.4891 70.7699 22.0956 70.8706 21.7064C70.875 21.6802 70.8706 21.6539 70.8706 21.6102C70.7699 21.6146 70.7086 21.6671 70.6561 21.7239C70.2182 22.1655 69.7803 22.6028 69.3556 23.0488C69.0185 23.403 68.7032 23.7747 68.3792 24.1377C67.8275 24.7542 67.3284 25.4189 66.8336 26.0836C66.0586 27.1287 65.2924 28.1781 64.513 29.2232C63.6329 30.4082 62.7485 31.5889 61.8596 32.7652C61.6626 33.0275 61.4437 33.2724 61.2379 33.526C61.1941 33.5829 61.1634 33.6485 61.1065 33.7359C61.181 33.7403 61.2204 33.7534 61.2554 33.7447C62.2931 33.5348 63.3264 33.3074 64.3641 33.1106C65.2792 32.9357 66.2031 32.7914 67.1226 32.634C67.4641 32.5771 67.8056 32.5072 68.1515 32.4591C68.6813 32.3847 69.2155 32.3235 69.7453 32.2579C70.1044 32.2142 70.4634 32.1617 70.8224 32.118C71.3347 32.0524 71.847 31.9956 72.3549 31.9256C72.657 31.8862 72.9592 31.8338 73.2656 31.79C73.7079 31.7244 74.1457 31.6589 74.588 31.5933C74.8638 31.5539 75.1397 31.5102 75.4155 31.4665C75.9365 31.3877 76.462 31.3134 76.983 31.226C77.4997 31.1429 78.012 31.0467 78.5242 30.9592C79.2992 30.8237 80.0742 30.6881 80.8492 30.5525C81.2871 30.4738 81.7249 30.3995 82.1759 30.3208C82.1759 30.2814 82.1759 30.2464 82.1672 30.2158C81.8957 29.4331 81.6242 28.6548 81.3528 27.872C81.3353 27.8196 81.3177 27.7671 81.2958 27.7146C81.2258 27.5703 81.1776 27.5528 81.0375 27.6446C80.8055 27.7889 80.5559 27.8939 80.2844 27.9464C79.886 28.0251 79.5838 27.7277 79.6539 27.3298C79.7152 26.9712 79.8684 26.6564 80.0742 26.3634C80.1968 26.1885 80.3326 26.018 80.4727 25.8562C80.5734 25.7381 80.5953 25.6419 80.5427 25.4845C80.4201 25.1303 80.3326 24.7674 80.2275 24.4044C79.8247 23.0095 79.4218 21.6146 79.0234 20.224C78.8176 19.5113 78.6381 18.7898 78.4148 18.0814C78.1214 17.1456 77.6398 16.3104 76.9305 15.6239C76.7159 15.4183 76.4663 15.2434 76.2299 15.0642C75.8402 14.7668 75.7789 14.5744 75.9453 14.1109C76.0635 13.7698 76.2562 13.4725 76.4839 13.197C76.7509 12.8734 77.0531 12.5892 77.4033 12.353C77.7098 12.1475 78.0426 12.012 78.4016 11.9464C78.6425 11.9026 78.8701 11.9551 79.019 12.1606C79.1416 12.3268 79.2949 12.4536 79.4481 12.5848C79.8071 12.8821 80.1136 13.2145 80.3764 13.5993C80.7879 14.1983 81.1557 14.8237 81.379 15.5146C81.5804 16.1399 81.7468 16.7827 81.9263 17.4167C82.1934 18.3525 82.4605 19.2839 82.7276 20.2197C82.9991 21.1686 83.2662 22.1174 83.5464 23.062C83.6471 23.403 83.7653 23.7354 83.8792 24.0721C83.8879 24.1027 83.9098 24.1289 83.9361 24.1727C84.1419 24.1158 84.3389 24.0546 84.5359 23.9977C85.1314 23.8316 85.7269 23.6567 86.3311 23.508C87.3995 23.2413 88.4678 22.992 89.5406 22.7384C90.1711 22.5897 90.8016 22.441 91.4365 22.3142C92.0101 22.1962 92.588 22.1131 93.1616 21.995C93.6126 21.9032 94.0723 21.8813 94.5277 21.8288C94.7992 21.7982 95.0663 21.7676 95.3377 21.737C95.4384 21.7239 95.4778 21.6714 95.4778 21.5709C95.4735 20.5258 95.4778 19.485 95.4647 18.4399C95.4472 17.3511 95.1889 16.306 94.8386 15.2872C94.5715 14.5044 94.1599 13.7917 93.617 13.1664C93.3762 12.8909 93.3324 12.5935 93.4418 12.2568C93.5425 11.9464 93.7133 11.6796 93.9103 11.426C94.2913 10.9362 94.7379 10.5252 95.3071 10.2585C95.5085 10.1623 95.723 10.0967 95.9507 10.0967C96.0689 10.0967 96.174 10.1273 96.2528 10.2147C96.4017 10.3765 96.5593 10.5383 96.6951 10.7132C96.9665 11.0674 97.1898 11.4522 97.3781 11.8983C97.4482 11.7671 97.5051 11.6621 97.5576 11.5572C97.9429 10.8138 98.4946 10.2322 99.2346 9.83431C99.2828 9.80807 99.3353 9.78621 99.3835 9.76435C99.6987 9.6113 100.014 9.58943 100.356 9.70313C100.894 9.88241 101.38 10.1317 101.805 10.5121C102.256 10.9144 102.729 11.2992 103.118 11.7671C103.368 12.0688 103.604 12.3793 103.815 12.7029C104.524 13.7917 105.224 14.8892 105.925 15.9868C106.442 16.787 106.936 17.6047 107.475 18.3875C108.053 19.2314 108.675 20.0448 109.275 20.8712C109.62 21.3435 109.958 21.8245 110.317 22.2836C110.789 22.8871 111.337 23.4249 111.88 23.9671C112.243 24.3257 112.611 24.6755 112.974 25.0297C113.044 25.0997 113.114 25.1303 113.215 25.1259C113.36 25.1215 113.509 25.1172 113.653 25.1259C113.968 25.1478 114.205 25.3927 114.143 25.7031C114.091 25.9786 114.192 26.1273 114.397 26.2716C114.993 26.6957 115.571 27.1461 116.171 27.5659C116.95 28.1082 117.703 28.681 118.43 29.2888C118.942 29.7173 119.476 30.1196 119.976 30.5657C120.545 31.0729 121.123 31.5845 121.556 32.2273C121.71 32.4547 121.841 32.6908 121.92 32.9532C121.977 33.1369 122.077 33.2943 122.213 33.4255C122.41 33.6135 122.445 33.8409 122.393 34.0945C122.331 34.3831 122.196 34.6411 122.034 34.886C121.631 35.4938 121.11 35.9617 120.453 36.2721C120.282 36.3508 120.107 36.4077 119.91 36.4164C119.73 36.4208 119.586 36.3596 119.455 36.2459C119.223 36.0448 119.052 35.7999 118.964 35.5069C118.833 35.074 118.579 34.7242 118.281 34.4006C117.782 33.8627 117.235 33.3774 116.665 32.9182C115.943 32.341 115.234 31.7419 114.498 31.1778C113.951 30.7581 113.377 30.3776 112.812 29.9753C112.094 29.4593 111.394 28.9171 110.746 28.3137C110.636 28.2131 110.527 28.1825 110.387 28.1912C110.163 28.2087 109.94 28.2131 109.717 28.2262C109.152 28.2656 108.591 28.3006 108.027 28.3443C107.694 28.3705 107.361 28.4011 107.028 28.4361C106.647 28.4755 106.267 28.5192 105.886 28.5629C105.715 28.5848 105.697 28.5979 105.68 28.7641C105.662 28.9084 105.654 29.057 105.667 29.2014C105.719 29.8441 105.492 30.3864 105.102 30.8761C104.69 31.3877 104.217 31.8206 103.604 32.083C103.416 32.1617 103.223 32.2098 103.013 32.1967C102.79 32.1836 102.689 32.1093 102.61 31.895C102.518 31.637 102.549 31.3746 102.567 31.1079C102.584 30.8149 102.61 30.5263 102.632 30.2377C102.659 29.8966 102.68 29.5599 102.707 29.2188C102.707 29.1839 102.707 29.1533 102.702 29.0964C102.597 29.1052 102.501 29.0964 102.409 29.1183C101.608 29.2976 100.815 29.5118 100.04 29.7873C99.5236 29.971 99.0069 30.159 98.4859 30.347C98.4552 30.3601 98.4246 30.3733 98.3808 30.3907C98.3808 30.5132 98.3764 30.6269 98.3808 30.7449C98.4027 31.0773 98.4246 31.4096 98.4509 31.7419C98.5165 32.5684 98.6391 33.3817 98.8449 34.1863C98.9018 34.4006 98.9456 34.6192 98.9894 34.8379C99.042 35.1221 98.9807 35.3932 98.8537 35.6468C98.626 36.106 98.3151 36.5083 97.9298 36.8493C97.6671 37.0811 97.3825 37.2866 97.0629 37.4265C96.9184 37.4921 96.7607 37.5446 96.6075 37.5665C96.2747 37.619 96.0295 37.4921 95.9595 37.1642C95.7975 36.4208 95.6223 35.6731 95.4822 34.9253C95.4165 34.5842 95.4078 34.2344 95.3815 33.889C95.3377 33.2812 95.2764 32.669 95.2677 32.0611C95.2502 30.8718 95.2545 29.6824 95.2677 28.493C95.2677 27.8458 95.2983 27.1986 95.3202 26.5558C95.3421 25.9917 95.3684 25.432 95.399 24.8679C95.4078 24.728 95.4253 24.5924 95.4341 24.4525C95.4341 24.3957 95.4209 24.3344 95.4122 24.2339C95.3202 24.2907 95.2633 24.3213 95.2108 24.3607C94.9218 24.5531 94.6065 24.6624 94.2519 24.6886C93.9979 24.7061 93.744 24.7717 93.49 24.8111C93.2973 24.8417 93.1047 24.8723 92.912 24.881C92.1721 24.916 91.4452 25.0428 90.7184 25.174C89.7726 25.3402 88.8356 25.5413 87.8986 25.7643C86.966 25.9874 86.029 26.2104 85.0964 26.4378C84.9913 26.464 84.8862 26.5033 84.7724 26.5383C84.7899 26.6039 84.7943 26.652 84.8118 26.6957C85.022 27.2992 85.2234 27.907 85.4423 28.5061C85.5299 28.7466 85.6437 28.9783 85.7751 29.2014C86.6508 30.7012 87.671 32.1005 88.7568 33.4561C89.1991 34.007 89.7289 34.4749 90.2499 34.9428C90.6746 35.3232 91.1037 35.7037 91.5197 36.0929C91.8831 36.4296 92.2334 36.7794 92.5836 37.1248C92.7019 37.2429 92.8201 37.3653 92.8551 37.5359C92.8683 37.6102 92.8726 37.6845 92.8639 37.7589C92.8245 38.0475 92.6931 38.3011 92.5442 38.546C92.194 39.1188 91.7255 39.5867 91.1387 39.919C90.9417 40.0327 90.7184 40.0983 90.5039 40.177C90.2849 40.2557 90.0923 40.1901 89.9259 40.0371C89.7595 39.8797 89.5887 39.7223 89.4224 39.5648C88.967 39.1319 88.5248 38.6903 88.0606 38.2661C87.6447 37.8857 87.2112 37.5228 86.7909 37.1467C86.3968 36.7925 86.0597 36.3815 85.7313 35.966C84.9519 34.9865 84.2207 33.9677 83.5245 32.9226C83.4763 32.8482 83.4194 32.7783 83.3625 32.6996C83.3056 32.7302 83.2662 32.7477 83.2224 32.7739C82.8852 32.9663 82.5218 33.08 82.1365 33.1237C81.3046 33.2112 80.4858 33.3642 79.6627 33.5173C79.1416 33.6135 78.6206 33.6966 78.0995 33.7884C77.3596 33.9196 76.6196 34.0595 75.8796 34.1863C75.2973 34.2869 74.7106 34.37 74.1238 34.4574C73.6291 34.5318 73.1343 34.6105 72.6395 34.6848C72.101 34.7635 71.5668 34.8379 71.0282 34.9166C70.586 34.9822 70.1481 35.0521 69.7059 35.109C69.2987 35.1615 68.8871 35.2008 68.4799 35.2489C68.134 35.2926 67.7925 35.3451 67.4466 35.3888C67.0525 35.4413 66.6585 35.485 66.2644 35.5419C65.9886 35.5812 65.7171 35.6337 65.4413 35.6818C64.7757 35.7999 64.1146 35.9311 63.4446 36.0273C62.6653 36.1366 61.899 36.329 61.1284 36.4733C60.9489 36.5083 60.7738 36.5389 60.5942 36.5739C60.5417 36.5826 60.4892 36.6045 60.4235 36.6263C60.4892 36.7575 60.5461 36.8756 60.6117 36.9893C61.0189 37.6802 61.4262 38.3667 61.8334 39.0532C62.0391 39.3987 62.2493 39.7441 62.4639 40.0896C62.6127 40.3257 62.6171 40.5706 62.5208 40.8286C62.4288 41.0866 62.3106 41.3271 62.153 41.5501C61.7064 42.1754 61.1547 42.6739 60.4235 42.945C60.3578 42.9712 60.2921 42.9931 60.2264 43.0106C59.9769 43.0762 59.7711 43.0018 59.6178 42.8007C59.5478 42.7089 59.4865 42.6039 59.4252 42.5033C59.0224 41.8518 58.6283 41.1959 58.2167 40.5487C57.4548 39.3462 56.9732 38.0387 56.7017 36.6482C56.6623 36.4514 56.6404 36.2503 56.6054 36.0535C56.5923 35.9748 56.5573 35.9048 56.5135 35.7824C56.4697 35.8698 56.439 35.9092 56.4303 35.9529C56.3427 36.3246 56.1544 36.6482 55.9136 36.9455C55.4363 37.5359 54.8628 37.995 54.1359 38.253C53.6718 38.4192 53.2252 38.3317 52.7917 38.1656C51.9116 37.8288 51.0403 37.4746 50.1602 37.1467C49.4159 36.8668 48.6672 36.6088 47.9184 36.3421C47.196 36.0841 46.491 35.7824 45.7992 35.4588C44.8798 35.0259 43.9471 34.6192 43.032 34.1688C42.13 33.7272 41.25 33.2462 40.3611 32.7827C40.2079 32.7039 40.059 32.6209 39.8795 32.5247C39.8839 32.5903 39.8795 32.6252 39.8882 32.6558C40.1159 33.2724 40.3392 33.8977 40.5844 34.5099C40.6895 34.7679 40.834 35.004 40.9785 35.2445C41.088 35.4282 41.1055 35.6031 41.0398 35.7999C40.8253 36.4689 40.4093 37.0024 39.8795 37.4528C39.6387 37.6583 39.3803 37.8332 39.0914 37.9557C38.9512 38.0125 38.8024 38.0606 38.6535 38.0868C38.4127 38.1349 38.2025 38.0606 38.0668 37.8551C37.9267 37.6408 37.7734 37.4266 37.6815 37.1904C37.4275 36.5607 37.1955 35.9179 36.9634 35.2795C36.7707 34.746 36.5868 34.2038 36.3986 33.666C36.3635 33.5698 36.3154 33.4823 36.2541 33.3555C36.1972 33.4298 36.1578 33.4736 36.1271 33.5217C35.5798 34.3744 34.9143 35.1352 34.1743 35.8261C32.8651 37.0505 31.464 38.1656 30.0191 39.2281C28.9639 40.0021 27.8473 40.6886 26.7089 41.3446C25.4829 42.053 24.2351 42.722 22.9522 43.3123C21.9145 43.7933 20.8636 44.2393 19.8128 44.6854C18.6568 45.1751 17.479 45.6036 16.2924 46.0103C15.316 46.3426 14.3309 46.6487 13.3282 46.8805C12.5357 47.0642 11.7388 47.2347 10.9419 47.3921C10.2983 47.5189 9.65462 47.6326 9.0066 47.7244C8.34544 47.8163 7.68429 47.93 7.01438 47.9562C6.75167 47.9649 6.48458 48.0262 6.22187 48.0218C5.85407 48.0131 5.48628 47.9824 5.11848 47.93C4.60619 47.8556 4.12456 47.6545 3.65168 47.449C3.02555 47.1778 2.42132 46.8543 1.86962 46.4432C1.39237 46.089 1.02019 45.6386 0.73559 45.1226C0.591099 44.8603 0.472879 44.5848 0.350281 44.3137C0.218926 44.0163 0.140112 43.7102 0.170762 43.3823C0.179519 43.2992 0.170762 43.2161 0.140112 43.1287C0.100706 43.273 0.0569207 43.4173 0.0175141 43.5616C0.0175141 43.0456 0.0175141 42.534 0.0175141 42.018L0 41.9961ZM8.109 44.9346C8.4768 44.8996 8.8446 44.8734 9.21239 44.8297C9.90857 44.7466 10.6091 44.6766 11.3053 44.5629C12.1285 44.4274 12.9473 44.2656 13.766 44.0994C14.8869 43.8677 15.9859 43.5747 17.0718 43.2161C18.1621 42.8532 19.2392 42.4552 20.3075 42.0311C21.6649 41.4889 23.0135 40.916 24.3183 40.2557C25.1327 39.8447 25.9383 39.4162 26.7396 38.9745C27.8649 38.3536 28.9551 37.6802 29.9753 36.9018C30.7766 36.2896 31.5691 35.6599 32.3441 35.0171C32.7951 34.6455 33.2329 34.2563 33.5963 33.7928C34.1612 33.0756 34.6297 32.3104 34.8573 31.414C34.9931 30.8761 35.0412 30.3339 34.958 29.7829C34.9274 29.5774 34.8749 29.3719 34.7523 29.197C34.3932 28.6766 33.9291 28.2962 33.2942 28.1475C32.5236 27.9682 31.7442 27.8808 30.9561 27.8545C30.7941 27.8502 30.6365 27.8414 30.4744 27.8239C30.3737 27.8152 30.3081 27.837 30.2424 27.9201C29.9359 28.318 29.555 28.6285 29.1215 28.8778C28.7581 29.0877 28.3684 29.2014 27.9437 29.1882C27.7335 29.1795 27.5233 29.1839 27.3175 29.1882C27.0242 29.2014 26.7308 29.2014 26.4418 29.2407C25.9733 29.3063 25.5048 29.385 25.0451 29.4856C24.3445 29.6343 23.6396 29.7829 22.9478 29.9666C21.9057 30.2464 20.8767 30.57 19.8347 30.8455C18.6612 31.156 17.5141 31.5452 16.3756 31.9562C15.0446 32.4328 13.7266 32.9401 12.435 33.5217C11.3666 34.0027 10.3026 34.4837 9.23866 34.9734C8.77892 35.1877 8.32793 35.4238 7.86819 35.6468C7.10195 36.0229 6.41014 36.517 5.74899 37.0549C5.0747 37.6058 4.41354 38.1743 3.85747 38.8477C3.65606 39.0926 3.42838 39.3287 3.31453 39.6348C3.12188 40.1552 3.07372 40.6886 3.16129 41.2352C3.25761 41.8299 3.52908 42.3547 3.86623 42.8444C4.04137 43.098 4.25591 43.3167 4.50111 43.5047C5.19729 44.0294 5.97667 44.4011 6.79107 44.6941C7.21141 44.8472 7.64926 44.9434 8.10463 44.9302L8.109 44.9346ZM68.5806 16.4547C68.4011 16.2448 68.2216 16.0918 68.0071 15.9868C67.5035 15.7288 66.9781 15.5277 66.4308 15.3746C65.9273 15.2347 65.4018 15.1997 64.8808 15.1691C64.6006 15.1516 64.3247 15.1429 64.0445 15.1297C63.8606 15.121 63.6723 15.1035 63.4928 15.086C63.4184 15.2653 63.3615 15.4358 63.2739 15.5933C63.0287 16.0393 62.6959 16.411 62.3106 16.7389C62.0479 16.9619 61.7589 17.1412 61.4393 17.2724C61.1503 17.3905 60.8657 17.408 60.568 17.2768C60.3797 17.1937 60.1739 17.1369 59.9725 17.0888C59.5346 16.9838 59.088 16.9794 58.6414 16.9707C57.9715 16.9576 57.3016 16.9838 56.6317 17.0013C56.4434 17.0057 56.2551 17.0188 56.0712 17.0538C55.2393 17.2199 54.4074 17.3861 53.5799 17.5741C52.4196 17.8365 51.2811 18.1907 50.1515 18.5755C48.9912 18.969 47.844 19.4063 46.7187 19.8917C46.4692 20.001 46.224 20.1191 45.9831 20.2415C45.8211 20.3246 45.8168 20.3727 45.8693 20.5432C45.9612 20.8362 46.1583 21.033 46.4341 21.1511C46.6968 21.2604 46.9639 21.361 47.2354 21.4528C47.8922 21.6714 48.5665 21.8245 49.2583 21.8288C50.0376 21.8288 50.8214 21.8026 51.6008 21.8026C52.2882 21.8026 52.9581 21.6802 53.628 21.5577C54.2936 21.4353 54.9547 21.3041 55.6115 21.1598C56.5835 20.9499 57.5555 20.74 58.5232 20.5039C59.6747 20.2284 60.8044 19.8786 61.9341 19.5244C62.9236 19.2095 63.8869 18.8291 64.8283 18.3875C65.7302 17.9633 66.6322 17.5391 67.5254 17.1019C67.8188 16.9576 68.0902 16.7783 68.3705 16.6077C68.4318 16.5684 68.4887 16.5159 68.5587 16.4547H68.5806ZM98.3326 28.1169C98.3764 28.095 98.4114 28.0819 98.4333 28.0601C98.7705 27.7933 99.147 27.6009 99.5542 27.4654C99.7119 27.4129 99.8695 27.3517 100.027 27.2948C100.732 27.0543 101.437 26.8094 102.142 26.5777C102.479 26.4684 102.479 26.4771 102.409 26.1185C102.313 25.6332 102.247 25.1478 102.138 24.6668C102.019 24.1464 101.884 23.6261 101.726 23.1188C101.485 22.3492 101.249 21.5796 100.96 20.8275C100.557 19.7911 100.106 18.7766 99.6725 17.7534C99.309 16.8963 98.9193 16.0524 98.6172 15.1691C98.5559 14.9854 98.4509 14.8149 98.3458 14.6006C98.3326 14.6837 98.3195 14.7187 98.3239 14.7493C98.3501 14.9417 98.372 15.1341 98.4158 15.3221C98.5297 15.8119 98.5559 16.3104 98.5603 16.8133C98.5691 17.5217 98.5647 18.23 98.5603 18.9428C98.5516 20.0491 98.5384 21.1554 98.5253 22.2574C98.5253 22.3842 98.5209 22.5066 98.5122 22.6334C98.4771 23.2937 98.4246 23.9496 98.4071 24.6099C98.3808 25.6375 98.3764 26.6651 98.3589 27.6971C98.3589 27.7933 98.337 27.8895 98.3283 27.9857C98.3283 28.0251 98.3283 28.0644 98.3283 28.1213L98.3326 28.1169ZM107.803 25.5107L107.821 25.4539C107.781 25.4014 107.742 25.3446 107.698 25.2921C107.497 25.0341 107.287 24.7848 107.09 24.5268C106.919 24.3082 106.761 24.0765 106.599 23.8534C106.188 23.2762 105.776 22.699 105.365 22.1218C105.286 22.0125 105.185 21.9163 105.093 21.8157C105.067 21.9032 105.076 21.9688 105.093 22.0344C105.316 22.8521 105.439 23.6873 105.575 24.5225C105.627 24.8592 105.654 25.1959 105.693 25.5326C105.702 25.6026 105.724 25.6725 105.741 25.7556C106.1 25.6988 106.437 25.6375 106.774 25.5982C107.116 25.5588 107.462 25.5501 107.808 25.5151L107.803 25.5107Z" fill="#FCFAF2"/>
<path d="M127.253 18.3438C127.24 18.2782 127.235 18.2126 127.213 18.1514C126.994 17.5436 126.78 16.9358 126.557 16.328C126.298 15.6196 125.965 14.9462 125.633 14.2771C123.833 10.6608 122.029 7.04455 120.225 3.42826C120.155 3.2927 120.085 3.15715 120.015 3.02159C119.8 2.63241 119.835 2.24761 120.033 1.86718C120.33 1.29434 120.742 0.822083 121.267 0.450396C121.534 0.262367 121.81 0.0830828 122.143 0.0262367C122.231 0.0131183 122.322 0 122.414 0C122.62 0 122.778 0.07871 122.87 0.26674C123.084 0.695272 123.299 1.1238 123.518 1.55234C124.604 3.71249 125.694 5.87702 126.78 8.03717C127.331 9.13911 127.883 10.2367 128.417 11.3474C128.79 12.1213 129.153 12.9084 129.49 13.6999C129.705 14.2028 129.862 14.7319 130.046 15.2479C130.497 16.5335 130.944 17.8191 131.399 19.1003C131.653 19.8131 131.894 20.5302 132.174 21.2342C132.406 21.8158 132.691 22.3755 133.024 22.9046C133.238 23.2457 133.496 23.5562 133.816 23.8142C134 23.9628 134.026 24.164 133.991 24.3826C133.939 24.7281 133.777 25.0298 133.58 25.3053C133.247 25.7775 132.844 26.1798 132.341 26.4684C132.183 26.5603 132.017 26.6346 131.85 26.6958C131.662 26.7658 131.474 26.8445 131.263 26.7614C130.97 26.6433 130.668 26.5165 130.515 26.2279C130.322 25.8606 130.033 25.5851 129.744 25.3009C129.442 25.0036 129.135 24.7106 128.829 24.4132C128.479 24.0722 128.098 23.7661 127.704 23.4775C127.152 23.0752 126.613 22.6554 126.053 22.2662C125.396 21.8114 124.722 21.3741 124.048 20.9412C122.966 20.2547 121.88 19.5682 120.786 18.8992C119.406 18.0552 118.018 17.2288 116.635 16.3936C116.425 16.2667 116.228 16.1268 116.022 15.9956C115.974 15.965 115.917 15.9388 115.834 15.8907C115.855 16.0394 115.925 16.1268 115.991 16.2055C116.906 17.3031 117.751 18.4531 118.596 19.5988C119.052 20.2154 119.494 20.8407 119.822 21.5359C119.967 21.8464 120.094 22.1569 120.155 22.498C120.216 22.8434 120.195 23.1757 120.076 23.5037C119.831 24.1902 119.398 24.7412 118.842 25.2091C118.509 25.4889 118.141 25.7163 117.708 25.8125C117.589 25.8388 117.458 25.83 117.34 25.7994C117.151 25.7557 117.046 25.6157 117.029 25.4233C117.016 25.2922 117.02 25.1566 117.046 25.0298C117.09 24.8243 117.077 24.6319 117.007 24.4351C116.841 23.9672 116.591 23.5387 116.311 23.132C115.851 22.4761 115.387 21.8245 114.901 21.1905C114.034 20.0579 113.141 18.9429 112.278 17.806C111.503 16.7871 110.746 15.7508 110.124 14.6313C109.953 14.3252 109.817 13.9929 109.695 13.6606C109.563 13.3107 109.472 12.9478 109.353 12.5892C109.209 12.1476 109.056 11.7059 108.911 11.2687C108.85 11.085 108.788 10.9013 108.74 10.7133C108.622 10.2454 108.784 9.83438 109.012 9.4452C109.358 8.85051 109.835 8.37825 110.422 8.01968C110.641 7.88412 110.881 7.78792 111.135 7.73107C111.402 7.67423 111.586 7.73107 111.726 7.97158C111.989 8.4176 112.339 8.79803 112.668 9.19158C112.878 9.4452 113.123 9.65947 113.386 9.85625C114.082 10.381 114.84 10.8095 115.588 11.2599C117.813 12.5936 120.037 13.9186 122.252 15.2654C123.684 16.1312 125.098 17.0232 126.517 17.9065C126.692 18.0159 126.859 18.1427 127.034 18.2607C127.091 18.3001 127.148 18.3307 127.205 18.3657C127.222 18.3526 127.24 18.3438 127.257 18.3307L127.253 18.3438Z" fill="#FCFAF2"/>
</g>
<defs>
<clipPath id="clip0_571_392">
<rect width="134" height="48" fill="white"/>
</clipPath>
</defs>
</svg>
