<svg width="116" height="77" viewBox="0 0 116 77" fill="none" xmlns="http://www.w3.org/2000/svg">
<g clip-path="url(#clip0_571_397)">
<path d="M90.4841 0C90.8274 0.494193 91.1896 0.974266 91.5141 1.47787C92.7182 3.34169 93.8517 5.25257 95.131 7.06461C96.5044 9.01314 98.0095 10.877 99.4675 12.769C101.852 15.866 104.227 18.9676 106.645 22.041C107.778 23.4812 108.987 24.865 110.182 26.2534C111.457 27.736 112.745 29.2045 114.039 30.6682C114.627 31.3366 115.215 32.0143 116 32.4708V33.3416C115.52 34.3535 114.805 35.1442 113.785 35.6337C113.394 35.8219 113.027 35.8219 112.599 35.7043C111.56 35.4219 110.68 34.81 109.712 34.3958C107.52 33.4592 105.309 32.565 103.108 31.6425C99.7215 30.2211 96.4386 28.6067 93.4002 26.5311C92.3842 25.8392 91.3918 25.1144 90.3853 24.4084C90.2536 24.3143 90.1125 24.239 89.9385 24.1307C89.8115 25.4486 90.0749 26.6252 90.7192 27.7219C91.4953 29.0397 92.3654 30.2776 93.4895 31.3271C93.6636 31.4919 93.8564 31.6378 94.0492 31.779C94.4914 32.0943 94.6042 32.3249 94.402 32.8238C93.9458 33.9534 93.1509 34.7724 92.0032 35.1913C91.547 35.356 91.072 35.3372 90.6628 34.9418C89.153 33.4875 87.8784 31.8637 86.9659 29.9716C86.3215 28.6303 86.1193 27.19 86.3498 25.7404C86.5708 24.3661 86.9518 23.0153 87.2998 21.6645C87.3845 21.335 87.408 21.0667 87.2058 20.7796C86.9283 20.3796 86.98 19.9701 87.1823 19.5465C87.5915 18.6852 88.2264 18.0404 89.0448 17.5839C89.9149 17.0991 90.5499 17.3532 90.992 18.2475C91.2037 18.6711 91.4671 19.0806 91.7681 19.4477C92.9204 20.8408 94.3973 21.848 95.8789 22.8505C98.8655 24.8697 102.045 26.5358 105.352 27.9572C105.46 28.0043 105.568 28.0419 105.822 28.1361C105.239 27.4489 104.735 26.8888 104.27 26.3005C102.421 23.9472 100.578 21.5939 98.7432 19.2312C96.6455 16.5249 94.5102 13.8421 92.483 11.0793C91.1849 9.31436 90.0466 7.43172 88.8426 5.59615C88.4193 4.95134 88.0477 4.26889 87.6009 3.64291C87.2246 3.12048 87.2434 2.63099 87.5256 2.08973C87.9442 1.29432 88.5651 0.710697 89.3317 0.26357C89.4822 0.183557 89.6186 0.0894254 89.7597 0C89.9996 0 90.2442 0 90.4841 0Z" fill="#FCFAF2"/>
<path d="M31.6163 39.6011C32.1807 39.4458 32.7498 39.2999 33.3095 39.1258C34.2078 38.8528 35.0921 38.5139 36.0516 38.5563C36.6771 38.5845 36.9123 38.7963 36.9687 39.4317C36.9875 39.6482 36.9781 39.8647 36.9781 40.0859C36.9922 45.8374 36.9781 51.5889 37.0252 57.3356C37.0487 59.8348 37.4767 62.2775 38.455 64.5979C38.7184 65.2145 39.0806 65.7934 39.4098 66.3817C39.5274 66.5935 39.6732 66.7865 39.8049 66.9889C40.4869 68.062 40.4681 68.5232 39.7014 69.5257C39.2358 70.1329 38.6525 70.5941 37.9423 70.8765C37.3685 71.1024 37.1192 71.0083 36.7665 70.5235C35.2002 68.4055 34.2784 66.0052 33.8316 63.4354C33.6199 62.2305 33.507 60.9926 33.4929 59.7689C33.4224 54.2151 33.4083 48.6566 33.3706 43.1029C33.3706 42.8393 33.3706 42.5757 33.3706 42.3121C32.952 42.1003 32.6228 42.331 32.2935 42.411C31.6163 42.5757 30.9484 42.764 30.2852 42.9805C29.7161 43.1687 29.1658 43.4276 28.6014 43.6394C27.9053 43.8983 27.2045 44.143 26.4002 44.4348C27.0069 45.315 27.529 46.1763 28.1546 46.9623C29.7772 49.0096 31.2212 51.1747 32.6369 53.3679C33.0367 53.9845 33.0273 54.5305 32.6792 55.1188C32.2512 55.8436 31.6633 56.4084 30.9343 56.8179C30.1958 57.2321 29.7349 57.1285 29.2928 56.4225C27.8018 54.0504 26.1791 51.7724 24.4765 49.5462C23.7898 48.6519 23.2583 47.6353 22.6563 46.6752C22.5434 46.4963 22.4258 46.3175 22.2941 46.1104C21.7956 46.3128 21.3393 46.5151 20.8643 46.6846C20.4598 46.8258 20.013 47.0234 19.6508 46.6234C19.2792 46.2186 19.4956 45.7715 19.7214 45.4185C20.0788 44.8537 20.5209 44.3407 20.9819 43.7382C20.4833 42.8581 19.9377 41.9027 19.4015 40.9425C17.887 38.2221 16.3584 35.5111 14.8674 32.7813C12.6521 28.7336 10.291 24.7706 7.45018 21.1277C5.50297 18.6379 3.42877 16.2517 1.41572 13.8137C1.07707 13.4042 0.757239 12.9806 0.446815 12.5523C-0.11289 11.7804 -0.14111 10.9944 0.413891 10.199C0.874824 9.53537 1.42512 8.97058 2.15885 8.60347C3.15127 8.10927 3.97907 8.34931 4.55759 9.28592C4.68458 9.48831 4.81157 9.6954 4.97149 9.86954C8.10866 13.2536 11.2364 16.6376 14.3924 20.0029C17.1439 22.9351 20.1447 25.5708 23.6346 27.6228C25.9204 28.9689 28.3662 29.882 30.9249 30.5456C32.6839 31.0022 34.4618 31.2799 36.282 31.3128C36.6442 31.3175 37.0017 31.374 37.3591 31.4211C37.9706 31.5011 38.4785 31.3458 38.93 30.8892C39.391 30.4233 39.9507 30.0797 40.6045 29.9244C41.1736 29.7879 41.6674 29.9573 42.0437 30.3762C42.3447 30.7104 42.4529 31.1151 42.2789 31.5858C41.6298 33.299 40.3975 34.4192 38.6384 34.7863C37.6789 34.9887 36.917 35.3511 36.1691 35.9629C34.7299 37.1396 33.2201 38.2221 31.7385 39.347C31.6821 39.3893 31.6398 39.4458 31.5927 39.4976C31.6021 39.5305 31.6163 39.5682 31.6257 39.6011H31.6163ZM24.6881 41.3567C27.8065 39.1728 30.986 37.262 34.0009 34.9134C28.0934 34.5933 22.8209 32.7483 18.0328 29.4537C20.2387 33.4025 22.4493 37.3514 24.6881 41.3567Z" fill="#FCFAF2"/>
<path d="M76.656 45.1741C75.5555 46.7037 73.9375 47.212 72.2207 47.4944C71.8868 47.5509 71.4776 47.4709 71.1719 47.3203C70.4711 46.972 69.7656 47.0614 69.0648 47.2073C65.7159 47.8992 62.3859 48.6852 59.1077 49.65C56.7513 50.3419 54.6018 51.4809 52.5652 52.8364C52.2454 53.0482 51.9914 53.3588 51.6622 53.5612C51.2765 53.8013 50.8532 53.9801 50.4393 54.159C50.1524 54.2813 49.8608 54.2249 49.635 54.0036C49.3763 53.7495 49.3998 53.4388 49.5174 53.1282C49.5786 52.9682 49.6209 52.794 49.7244 52.667C50.1759 52.1069 50.3217 51.4244 50.5287 50.7561C51.2342 48.4969 52.1419 46.3178 53.1673 44.1857C54.5783 41.2535 55.9846 38.3165 57.4238 35.3937C57.9788 34.2689 58.5997 33.1769 59.2158 32.0897C59.6156 31.379 60.2083 30.8472 60.9232 30.4612C61.1113 30.3577 61.3136 30.2683 61.5205 30.2118C62.099 30.0659 62.48 30.4 62.3859 30.9931C62.3389 31.2943 62.2213 31.6049 62.0661 31.8685C60.4575 34.5983 59.2535 37.5258 57.8471 40.3545C56.8406 42.3878 55.7965 44.3975 54.9828 46.5201C54.6629 47.3532 54.3431 48.1816 53.9715 49.1417C54.1879 49.0335 54.3008 48.9864 54.409 48.9299C57.0476 47.4426 59.8179 46.2895 62.7763 45.6071C64.3473 45.2447 65.8994 44.8022 67.5126 44.3786C67.4656 44.2422 67.4374 44.1057 67.3715 43.9974C66.6895 42.8255 66.3744 41.5406 66.2803 40.2086C66.1487 38.3542 66.0264 36.4998 66.0028 34.6454C65.984 33.3934 66.1204 32.1415 66.2286 30.8942C66.3556 29.4775 66.5296 28.0656 66.6848 26.6536C66.8448 25.1616 67.7384 24.2156 68.9989 23.5425C69.1259 23.4766 69.2717 23.4484 69.4128 23.4154C69.996 23.2837 70.3676 23.5896 70.3065 24.1826C70.25 24.7333 70.156 25.2793 70.0807 25.8299C69.6574 28.8751 69.4928 31.9344 69.6574 35.0031C69.7326 36.4198 69.8079 37.86 70.0995 39.239C70.4334 40.8205 71.1954 42.223 72.5923 43.1832C72.8228 43.3432 73.0391 43.3903 73.326 43.3714C74.0692 43.3291 74.8123 43.3573 75.5696 43.3573C74.9722 42.0301 74.3843 40.7875 73.8481 39.5261C72.7993 37.0599 72.2537 34.4995 72.1596 31.8073C72.0373 28.3433 72.7287 25.0533 73.914 21.8387C74.4172 20.4738 75.2827 19.3442 76.4397 18.4594C76.7783 18.2005 77.1828 17.9934 77.5873 17.8711C78.1423 17.7016 78.575 18.1205 78.4198 18.6806C78.3069 19.0901 78.1188 19.5137 77.8554 19.8337C77.3427 20.4456 77.0511 21.1327 76.8207 21.8811C76.0681 24.3662 75.6072 26.8889 75.7201 29.5011C75.8141 31.7838 76.2469 33.9865 77.0653 36.128C78.1753 39.0272 79.7603 41.6771 81.3218 44.341C82.0791 45.6306 82.9022 46.8873 83.6077 48.2004C84.8353 50.4878 85.7948 52.8788 85.9829 55.505C86.1193 57.4253 85.6866 59.2515 84.8776 60.9788C83.6547 63.5957 82.0697 65.9772 80.1601 68.1517C77.6391 71.0274 74.8547 73.6302 72.0091 76.1717C71.7081 76.44 71.3553 76.6706 70.9932 76.8589C70.7721 76.9719 70.4852 77.0001 70.2265 77.0095C69.9161 77.0189 69.7044 76.8165 69.7279 76.5106C69.7515 76.1859 69.8173 75.8423 69.949 75.5458C70.2594 74.8727 70.8003 74.3832 71.3412 73.8984C73.7682 71.7193 76.1387 69.4884 78.2928 67.0268C79.6521 65.4736 80.7574 63.7463 81.6417 61.8872C82.5306 60.0234 82.587 58.0607 82.1308 56.084C81.6887 54.1966 80.955 52.4128 79.9625 50.742C78.9137 48.977 77.8742 47.212 76.8254 45.447C76.7783 45.367 76.7219 45.287 76.6513 45.1835L76.656 45.1741Z" fill="#FCFAF2"/>
<path d="M44.1508 24.173C42.8762 24.0977 41.5922 24.0883 40.327 23.933C39.0382 23.773 37.8624 23.227 36.8558 22.4175C36.2538 21.9327 36.1315 21.1844 36.3291 20.4266C36.616 19.3158 37.3497 18.5157 38.2339 17.8615C39.485 16.9343 40.9055 16.3366 42.3494 15.7765C45.2138 14.6704 48.2193 14.0821 51.173 13.2961C53.1061 12.7831 55.0392 12.2748 56.9723 11.7712C57.3674 11.6676 57.7672 11.5594 58.1717 11.5076C59.6203 11.3193 60.9373 10.698 62.3201 10.2933C64.8599 9.54964 67.3997 8.806 69.949 8.09059C71.5481 7.63876 73.1755 7.29988 74.8217 7.05514C76.7078 6.77274 78.5985 6.61272 80.5128 6.62684C82.5024 6.63625 84.4543 6.83864 86.378 7.35636C87.0176 7.53051 87.5961 7.79878 88.1323 8.18002C88.518 8.45771 88.7203 8.82953 88.6356 9.3049C88.5744 9.65789 88.4992 10.0203 88.344 10.3356C87.7796 11.4982 86.9 12.3736 85.7618 12.9902C83.5935 14.1715 81.3218 15.094 78.9701 15.8282C76.8348 16.5013 74.7041 17.1932 72.5547 17.8238C69.8972 18.6004 67.221 19.3158 64.5542 20.0595C62.2824 20.6949 60.0201 21.3726 57.7389 21.9657C55.7588 22.4787 53.7599 22.9164 51.7656 23.3682C49.2634 23.9377 46.7236 24.1966 44.1508 24.1778V24.173ZM40.421 19.4382C41.2159 19.9089 41.9308 20.276 42.7257 20.3889C44.7905 20.6808 46.8741 20.6384 48.9436 20.516C51.5728 20.3607 54.1408 19.7912 56.6901 19.1511C58.8631 18.6051 61.0266 18.0356 63.1808 17.4238C67.9783 16.0683 72.7757 14.7128 77.5497 13.2914C79.6004 12.6795 81.6087 11.9124 83.6312 11.2111C83.7723 11.164 83.8899 11.0652 84.0827 10.9569C80.1695 9.88851 76.3221 10.025 72.4512 10.6698C72.4277 10.7498 72.4042 10.8157 72.39 10.8863C72.0702 12.7266 70.2594 13.9927 68.411 13.715C67.6772 13.602 66.92 13.5079 66.1816 13.5408C65.0763 13.5926 63.971 13.7291 62.8751 13.8844C61.6381 14.0586 60.4011 14.2845 59.1735 14.5151C58.7314 14.5998 58.2751 14.7222 57.8753 14.9199C56.7042 15.4894 55.5942 16.1671 54.6441 17.0849C54.3055 17.4097 53.8492 17.6262 53.4259 17.8474C53.139 17.998 52.8145 18.0403 52.5511 17.7721C52.2783 17.4944 52.2736 17.1696 52.4288 16.8355C52.5699 16.5248 52.7157 16.2236 52.8709 15.8847C52.2266 16.0542 51.6433 16.2095 51.0601 16.3601C48.9154 16.9108 46.7706 17.4614 44.6259 18.0168C43.229 18.3792 41.8509 18.7887 40.421 19.4335V19.4382Z" fill="#FCFAF2"/>
<path d="M44.7623 52.0457C43.6193 51.5515 43.069 50.5913 42.547 49.6029C41.832 48.2521 41.3523 46.8119 40.882 45.3717C40.5292 44.2939 40.2282 43.202 39.8566 42.1383C39.6685 41.597 39.4004 41.0746 39.1182 40.571C38.8266 40.0485 38.328 39.7238 37.8153 39.4555C37.044 39.0554 36.8511 38.5989 37.3873 37.667C37.8153 36.9234 38.4127 36.3303 39.184 35.9303C39.6873 35.6667 40.1341 35.6996 40.675 35.9773C42.166 36.7492 42.9091 38.0341 43.4124 39.5449C44.1179 41.6676 44.8328 43.7903 45.5901 45.8988C45.8064 46.5013 46.178 47.052 46.5355 47.7438C46.7706 47.1979 46.9493 46.7649 47.1469 46.3413C47.9277 44.6563 48.7178 42.9808 49.4939 41.2958C50.8532 38.34 52.2172 35.3843 53.5435 32.4191C53.9809 31.4449 54.5406 30.5977 55.4719 30.0517C55.7353 29.8964 56.0363 29.7646 56.3373 29.7128C56.93 29.614 57.2827 29.9952 57.1322 30.5789C57.0193 31.0213 56.8453 31.4496 56.6525 31.8638C55.4108 34.5842 54.202 37.314 52.8992 40.0062C51.1871 43.5455 49.6162 47.1414 48.1534 50.789C47.4526 52.5305 46.7706 54.286 46.2062 56.0745C45.8629 57.1665 45.7735 58.3384 45.5524 59.4727C45.2655 60.9647 45.4913 62.4614 45.5854 63.944C45.6794 65.4877 44.894 66.4338 43.7181 67.1962C43.5159 67.328 43.2948 67.4315 43.069 67.5069C42.4952 67.7045 42.119 67.4692 42.0437 66.8668C41.9826 66.3867 41.9449 65.9066 41.9214 65.4265C41.8038 63.2003 41.9214 60.9976 42.4106 58.8138C42.8151 57.0158 43.5864 55.3497 44.179 53.6224C44.3531 53.1235 44.5459 52.6293 44.7576 52.0504L44.7623 52.0457Z" fill="#FCFAF2"/>
<path d="M78.3728 27.9101C78.4292 25.5992 78.735 23.34 79.6192 21.1891C79.9814 20.3137 80.4517 19.4853 81.2184 18.897C81.6134 18.5911 82.0603 18.3275 82.5259 18.1581C83.0856 17.9557 83.4807 18.3228 83.4054 18.9205C83.3725 19.1794 83.2926 19.4477 83.1703 19.6736C82.493 20.8832 82.286 22.2152 82.1214 23.5518C82.0273 24.3143 81.9568 25.0909 81.9803 25.8628C82.0226 27.5289 82.1637 29.1997 82.6153 30.8C83.1985 32.8568 84.2191 34.6782 86.1005 35.8737C86.4674 36.1043 86.8154 36.3679 87.1588 36.6315C87.6291 36.9892 87.7749 37.3092 87.5632 37.8222C87.0835 38.9895 86.2557 39.8273 85.0281 40.2273C84.713 40.3309 84.4543 40.2273 84.2191 40.0579C83.4807 39.5166 82.7234 38.9942 82.0179 38.4106C80.9126 37.4975 80.2165 36.2832 79.6427 34.9936C78.9701 33.4733 78.702 31.8637 78.5703 30.2211C78.5092 29.4539 78.4433 28.682 78.3822 27.9148L78.3728 27.9101Z" fill="#FCFAF2"/>
</g>
<defs>
<clipPath id="clip0_571_397">
<rect width="116" height="77" fill="white"/>
</clipPath>
</defs>
</svg>
