<svg width="135" height="58" viewBox="0 0 135 58" fill="none" xmlns="http://www.w3.org/2000/svg">
<g clip-path="url(#clip0_571_404)">
<path d="M0.113394 19.4033C0.645595 18.6748 1.29558 18.099 2.17676 17.8242C2.89654 17.5974 3.06667 17.6497 3.468 18.3084C4.52368 20.0446 5.26963 21.9072 5.5968 23.9182C6.16826 27.3949 6.71355 30.876 7.27192 34.357C7.28937 34.4573 7.31555 34.5577 7.34172 34.6624C8.35377 32.695 9.34401 30.7494 10.3561 28.817C11.7782 26.108 13.6191 23.7132 15.8744 21.6499C16.4633 21.1133 17.1002 20.6204 17.7589 20.1711C18.0904 19.9486 18.5092 19.8221 18.9105 19.7479C19.5474 19.6302 19.892 20.0577 19.591 20.6335C19.3817 21.0348 19.0196 21.362 18.6924 21.6848C18.1995 22.1646 17.6629 22.6008 17.1613 23.0719C14.9321 25.1745 13.5318 27.8355 12.1795 30.5182C11.4117 32.0363 10.7443 33.6111 10.0943 35.1858C9.82823 35.8271 9.73226 36.5425 9.69736 37.2971C10.0333 37.0659 10.3735 36.8347 10.7094 36.6035C12.2711 35.5173 13.8415 34.4486 15.5079 33.5195C17.532 32.394 19.4733 31.129 21.4712 29.9512C21.8682 29.72 22.3218 29.5368 22.7755 29.4626C23.504 29.3448 23.8181 29.7549 23.5826 30.4572C23.1987 31.6044 22.7668 32.7386 22.4135 33.8946C22.0819 34.9721 21.8245 36.067 21.493 37.3233C21.842 37.1008 22.0427 36.9743 22.239 36.8435C24.4768 35.3298 26.6841 33.7637 28.9656 32.3198C30.4052 31.4081 31.9363 30.6404 33.5853 30.1213C35.4524 29.5324 37.2758 28.8083 39.156 28.2761C41.7602 27.5389 44.4212 27.0808 47.139 27.0808C49.0496 27.0808 50.9429 27.264 52.6922 28.1365C53.0586 28.3197 53.4076 28.5291 53.8176 28.7559C54.4633 27.9489 55.1263 27.1114 55.7938 26.2782C57.8135 23.7612 59.8769 21.2834 62.2456 19.0805C63.118 18.2692 64.0036 17.4665 65.1073 16.9954C65.8358 16.6857 66.6035 16.4152 67.38 16.2669C68.5491 16.0444 69.1249 16.7075 68.8283 17.8547C68.6015 18.7315 68.3223 19.5996 68.0693 20.4721C67.6592 21.8985 67.2491 23.3293 66.8434 24.7601C66.6253 25.5235 66.2851 26.2607 66.3941 27.0939C66.4116 27.2161 66.3374 27.3644 66.272 27.4821C65.7354 28.4375 64.9677 29.118 63.8858 29.3841C63.1355 29.5673 62.804 29.2837 62.961 28.5334C63.2271 27.2422 63.5237 25.9554 63.8684 24.6816C64.3177 23.0371 64.8281 21.4056 65.3036 19.7698C65.3646 19.5647 65.3821 19.3466 65.4213 19.1198C64.9633 19.0805 64.7277 19.3684 64.4616 19.604C62.6949 21.1613 61.155 22.928 59.6806 24.747C58.193 26.5879 56.7884 28.4985 55.3662 30.3961C55.1612 30.6709 54.9475 31.0199 54.93 31.3427C54.8297 32.948 54.1317 34.309 53.2593 35.5959C52.9713 36.019 52.9015 36.4465 52.9364 36.9176C52.9626 37.2666 53.1764 37.4018 53.5035 37.3451C53.7217 37.3102 53.931 37.2448 54.1448 37.1837C56.0817 36.6079 57.9226 35.8314 59.6806 34.815C61.4909 33.7637 63.3711 32.8302 65.2163 31.8444C65.6787 31.5957 66.1498 31.3602 66.5948 31.0853C66.8216 30.9457 67.0485 30.7582 67.1924 30.5357C67.5938 29.9119 68.0998 29.419 68.7759 29.1311C69.2514 28.9304 69.3343 28.6207 69.2907 28.1496C68.9722 24.5551 69.0377 20.9475 69.077 17.3444C69.0944 15.5297 69.1249 13.715 69.1467 11.896C69.1685 9.9635 71.5329 8.40182 73.3258 9.1434C73.797 9.3397 73.9584 9.6974 73.6923 10.1293C73.4959 10.4521 73.2473 10.7749 72.9507 11.0017C72.6017 11.2678 72.4664 11.5688 72.4621 11.9832C72.4446 13.5231 72.4097 15.0629 72.401 16.6028C72.3923 18.6399 72.3836 20.6727 72.4228 22.7099C72.449 24.0491 72.5581 25.3839 72.6366 26.806C74.7174 25.397 76.9989 24.5551 79.2542 23.5038C79.2847 23.1766 79.3022 22.8233 79.3545 22.4787C79.6686 20.2976 80.0263 18.1252 80.7112 16.0182C81.0951 14.8405 81.3873 13.6365 81.7102 12.4412C82.3165 10.1816 83.0276 7.95688 83.8346 5.75832C84.1181 4.99493 84.3712 4.26208 85.0211 3.72989C85.5403 3.3024 86.1117 2.98395 86.7791 2.85309C87.1194 2.78329 87.4597 2.77893 87.6909 3.07992C87.9352 3.394 87.7999 3.73862 87.6036 4.00035C86.705 5.19996 86.3953 6.63949 85.959 8.02231C85.3832 9.83263 84.8903 11.6691 84.3581 13.4925C83.5249 16.3498 82.9054 19.2463 82.6306 22.217C83.0145 22.3086 83.3155 22.1908 83.6165 21.9596C84.8597 20.9999 86.1161 20.062 87.4379 19.0631C87.2459 19.0849 87.1238 19.1154 86.9973 19.1154C86.2513 19.1111 86.0157 18.6836 86.4171 18.0336C86.7573 17.484 87.2328 17.0695 87.813 16.7729C90.9277 15.1807 94.1994 14.0509 97.6587 13.4882C99.2684 13.2264 100.887 13.2613 102.518 13.3704C104.036 13.4707 105.432 13.9113 106.806 14.4871C108.612 15.2461 109.52 16.6508 109.72 18.7272C110.122 17.8809 110.453 17.1524 110.811 16.4327C111.43 15.1763 112.041 13.9113 112.704 12.6812C113.11 11.9265 113.633 11.2329 114.419 10.8229C114.781 10.6353 115.173 10.4608 115.57 10.3954C116.198 10.2907 116.491 10.7443 116.229 11.3201C116.194 11.3943 116.155 11.4685 116.111 11.5383C114.297 14.2603 113.21 17.34 111.806 20.2627C111.243 21.4361 110.955 22.7448 110.497 24.1232C111.186 23.5518 111.736 23.0589 112.32 22.6139C115.797 19.9748 119.789 18.653 124.064 18.0729C125.429 17.8853 126.799 17.7588 128.169 17.6061C128.404 17.5799 128.64 17.5494 128.967 17.5101C128.688 17.2048 128.457 16.9779 128.251 16.7249C126.188 14.2079 124.718 11.4118 124.147 8.17499C123.854 6.51735 123.985 4.8946 124.36 3.27186C124.421 3.0014 124.526 2.73531 124.526 2.46485C124.539 1.24779 126.031 0.21831 127.039 0.0525456C127.628 -0.0434231 127.933 0.21831 127.894 0.824657C127.872 1.15182 127.811 1.48335 127.728 1.80179C126.864 5.02111 127.532 8.02231 129.011 10.9101C130.132 13.0999 131.61 15.0019 133.543 16.5374C133.888 16.8078 134.271 17.0259 134.634 17.2789C135.031 17.5581 135.096 17.8417 134.878 18.2735C134.398 19.2245 133.072 19.9442 132.007 19.8919C131.545 19.8701 131.078 19.953 130.612 19.9748C127.558 20.1318 124.513 20.3848 121.494 20.9039C119.509 21.2442 117.568 21.7153 115.736 22.6314C113.472 23.7612 111.806 25.5279 110.253 27.4429C110.117 27.6087 110.065 27.8355 109.965 28.0274C109.463 28.9784 108.704 29.624 107.653 29.8857C106.959 30.0602 106.628 29.8421 106.628 29.1311C106.628 28.42 106.649 27.6872 106.82 27.0023C107.216 25.3796 107.709 23.7786 108.15 22.2213C107.705 22.6445 107.221 23.1287 106.715 23.578C105.249 24.8866 103.491 25.7242 101.689 26.4047C97.4275 28.0143 93.0434 29.2009 88.5328 29.8988C86.7181 30.178 84.9077 30.082 83.0974 29.8988C82.8531 29.8726 82.6175 29.8159 82.3034 29.7592C82.2729 30.0297 82.2205 30.2391 82.2293 30.4397C82.3689 34.1563 83.0537 37.7682 84.4322 41.2318C84.5849 41.6157 84.694 42.017 84.8466 42.4009C84.9906 42.7717 84.9339 43.112 84.7158 43.4173C84.2054 44.1371 83.538 44.6518 82.6655 44.8568C82.0635 45.0008 81.7887 44.8612 81.5618 44.2985C79.8998 40.2285 78.9227 36.0103 78.879 31.6044C78.8616 29.7069 78.9139 27.8137 78.9357 25.8376C78.7089 25.9336 78.469 26.0252 78.2334 26.1342C77.0774 26.6577 75.9258 27.1855 74.7741 27.7133C74.6258 27.7831 74.4775 27.8573 74.3335 27.9358C72.8023 28.7908 72.7718 28.8475 73.0292 30.5924C73.3476 32.7735 73.6617 34.9503 73.9845 37.1314C74.303 39.2514 74.9486 41.258 76.0523 43.1076C76.3794 43.6529 76.7371 44.1589 77.2781 44.5428C77.8452 44.9441 77.8801 45.3018 77.4569 45.8689C77.265 46.1306 77.0207 46.3705 76.7589 46.5625C75.2496 47.6618 74.4688 47.5745 73.3171 45.9561C71.9124 43.98 71.088 41.7204 70.7303 39.3081C70.3769 36.9394 70.0236 34.5707 69.6659 32.2021C69.6353 32.0145 69.6004 31.8226 69.5699 31.6437C69.5044 31.6306 69.4434 31.5914 69.4128 31.6088C67.0136 32.9087 64.6143 34.2087 62.2194 35.5173C60.9849 36.1935 59.7722 36.9089 58.5376 37.5763C56.4874 38.6843 54.3106 39.4608 52.0465 39.993C51.2657 40.1762 50.4543 40.246 49.8654 39.5873C45.3111 42.8939 40.2247 44.9572 34.8809 46.436C31.8535 47.2735 28.7911 47.9976 25.6285 48.0674C24.0362 48.1023 22.4396 48.0413 20.843 48.0238C20.7427 48.0238 20.638 48.0325 20.4155 48.0456C20.5726 48.5429 20.6685 49.0009 20.8561 49.4154C21.9162 51.7012 23.3077 53.7296 25.4496 55.1473C26.1432 55.6053 26.3439 55.9587 25.6197 56.8224C25.0919 57.4549 24.3809 57.817 23.5956 58.0351L22.9413 57.9217C22.1604 57.2761 21.3316 56.6741 20.6075 55.963C20.0186 55.3872 19.5169 54.7155 19.0458 54.0393C17.8679 52.3424 16.9519 50.5364 16.9693 48.3946C16.9693 47.9017 16.9475 47.4044 16.8995 46.9114C16.869 46.5886 16.8603 46.2266 16.7032 45.9649C16.1797 45.0837 16.1012 44.2112 16.5462 43.2908C16.7599 42.8459 16.9649 42.3966 17.17 41.9429C17.2834 41.6942 17.4143 41.45 17.4841 41.1882C17.8112 39.9668 18.1122 38.7367 18.4438 37.5152C18.6924 36.5861 18.9716 35.6657 19.2464 34.7409C19.386 34.2654 19.5431 33.7943 19.7306 33.1923C18.4525 33.96 17.3227 34.6493 16.1885 35.3254C15.2898 35.862 14.3607 36.3549 13.4882 36.9263C12.2886 37.7115 11.1195 38.5447 9.9591 39.3866C9.38764 39.8054 8.87289 40.2983 8.3276 40.7607C8.57189 41.5939 8.76383 42.3399 9.01684 43.0683C9.99836 45.9343 10.9101 48.8308 12.2886 51.5441C12.3758 51.7142 12.4369 51.9018 12.5154 52.0763C12.7292 52.5562 12.6506 52.9837 12.3278 53.3893C11.8523 53.9913 11.2634 54.4232 10.5262 54.6457C9.76279 54.8769 9.60139 54.7765 9.24368 54.0611C8.0964 51.7884 7.22394 49.411 6.40819 47.0074C5.90652 45.5243 5.37869 44.0324 5.06024 42.5013C4.55858 40.1064 4.21395 37.6766 3.81698 35.26C3.28478 32.0014 2.79621 28.7341 2.22475 25.4799C1.88012 23.5387 1.12981 21.7327 0.0130615 20.0926L0.126481 19.4426L0.113394 19.4033ZM51.4969 32.1454C51.1523 31.443 50.6419 31.0243 49.9963 30.7058C48.7835 30.1082 47.4836 29.8814 46.1574 29.7941C43.9676 29.6458 41.8213 29.9686 39.6838 30.4136C38.9989 30.5575 38.362 30.7102 37.8691 31.2642C37.6771 31.4823 37.3892 31.6568 37.1144 31.7571C36.7654 31.888 36.3335 32.0712 36.0151 31.9752C35.1339 31.7048 34.3705 31.9578 33.6376 32.3504C32.5471 32.9349 31.5001 33.6023 30.4095 34.1869C30.0082 34.4006 29.5415 34.562 29.0921 34.6013C28.7388 34.6318 28.4552 34.7278 28.1804 34.9154C27.1073 35.6439 26.0342 36.368 24.961 37.1008C23.5477 38.0692 22.1997 39.1118 21.0175 40.3638C20.7427 40.656 20.5508 40.957 20.5115 41.3671C20.4504 42.0519 20.3588 42.7324 20.2847 43.4173C20.193 44.2331 20.1974 44.2243 20.9521 44.6169C22.1081 45.2233 23.347 45.3759 24.6339 45.3934C26.9808 45.4283 29.3102 45.3149 31.6179 44.8787C36.3554 43.98 40.8921 42.4882 45.2065 40.3158C46.7202 39.5524 48.1466 38.68 49.2547 37.3669C49.4292 37.1619 49.6298 36.9307 49.6822 36.6821C50.005 35.068 50.6724 33.598 51.4925 32.1366L51.4969 32.1454ZM91.2549 17.3051L91.2941 17.4621C91.473 17.4185 91.6518 17.3705 91.835 17.34C93.2702 17.087 94.7011 16.7991 96.145 16.6028C96.5856 16.5417 97.0785 16.6595 97.5148 16.8078C98.0775 16.9997 98.1735 17.3356 97.8681 17.8417C97.3621 18.6879 96.5943 19.2027 95.6477 19.4426C95.4427 19.4949 95.1766 19.5211 94.9977 19.4382C94.4263 19.1678 93.8635 19.2899 93.2964 19.3902C92.5112 19.5298 91.7173 19.6476 90.9451 19.8352C89.5972 20.1667 88.3059 20.6466 87.1892 21.4928C86.1335 22.2911 85.0909 23.1068 84.0745 23.9575C83.7473 24.2323 83.49 24.6162 83.2588 24.987C82.8836 25.602 83.0276 26.1473 83.6252 26.5443C84.1879 26.9151 84.8118 27.1375 85.4835 27.1899C87.1587 27.3295 88.8425 27.4865 90.5045 27.1419C92.7162 26.6839 94.9366 26.2607 97.1134 25.6718C99.3731 25.0611 101.624 24.3937 103.735 23.3468C104.46 22.9891 105.123 22.5528 105.664 21.9421C106.056 21.4972 106.383 20.9999 106.361 20.3935C106.327 19.1765 105.882 18.1339 104.826 17.436C103.7 16.6944 102.418 16.3062 101.114 16.1142C99.0023 15.8001 96.8779 15.8699 94.7927 16.3541C93.6061 16.629 92.437 16.9867 91.2592 17.3051H91.2549Z" fill="#FCFAF2"/>
</g>
<defs>
<clipPath id="clip0_571_404">
<rect width="135" height="58" fill="white"/>
</clipPath>
</defs>
</svg>
