<svg width="18" height="18" viewBox="0 0 18 18" fill="none" xmlns="http://www.w3.org/2000/svg">
<g clip-path="url(#clip0_359_427)">
<path d="M9 1.73812C11.3653 1.73812 11.6452 1.74797 12.5803 1.79016C13.1422 1.79635 13.6989 1.89959 14.2256 2.09531C14.6108 2.23694 14.9592 2.4633 15.2452 2.75766C15.5394 3.04372 15.7657 3.39211 15.9075 3.77719C16.1032 4.30396 16.2065 4.86058 16.2127 5.4225C16.2548 6.35625 16.2647 6.63609 16.2647 9.00281C16.2647 11.3695 16.2548 11.648 16.2127 12.5817C16.2065 13.1436 16.1032 13.7003 15.9075 14.227C15.7601 14.6108 15.5337 14.9593 15.243 15.25C14.9523 15.5408 14.6038 15.7671 14.22 15.9145C13.6932 16.1103 13.1366 16.2135 12.5747 16.2197C11.6409 16.2619 11.3597 16.2717 8.99438 16.2717C6.62906 16.2717 6.34781 16.2619 5.41406 16.2197C4.85214 16.2135 4.29552 16.1103 3.76875 15.9145C3.38358 15.7729 3.03516 15.5465 2.74922 15.2522C2.45501 14.9661 2.22867 14.6177 2.08687 14.2327C1.89115 13.7059 1.78791 13.1493 1.78172 12.5873C1.73953 11.6536 1.72969 11.3738 1.72969 9.00703C1.72969 6.64031 1.73953 6.36187 1.78172 5.42812C1.78791 4.8662 1.89115 4.30958 2.08687 3.78281C2.22979 3.39455 2.45861 3.04362 2.75625 2.75625C3.04219 2.46189 3.39062 2.23553 3.77578 2.09391C4.30255 1.89818 4.85917 1.79494 5.42109 1.78875C6.35625 1.74656 6.63609 1.73672 9.00141 1.73672M9 0.140625C6.59391 0.140625 6.29156 0.150469 5.34375 0.194063C4.6102 0.209472 3.88458 0.34927 3.19781 0.6075C2.60626 0.829633 2.07022 1.17803 1.62703 1.62844C1.17663 2.07163 0.828227 2.60766 0.606094 3.19922C0.348709 3.88569 0.209397 4.61078 0.194063 5.34375C0.151875 6.29156 0.140625 6.59531 0.140625 9C0.140625 11.4047 0.150469 11.707 0.194063 12.6562C0.208595 13.3907 0.347926 14.1173 0.606094 14.805C0.828246 15.3961 1.17666 15.9317 1.62703 16.3744C2.06979 16.8256 2.60592 17.1746 3.19781 17.3967C3.88489 17.6533 4.61046 17.7917 5.34375 17.8059C6.28594 17.8481 6.58969 17.8594 9 17.8594C11.4103 17.8594 11.707 17.8495 12.6562 17.8059C13.3907 17.7914 14.1173 17.6521 14.805 17.3939C15.3939 17.1666 15.9287 16.8186 16.3751 16.3723C16.8214 15.9259 17.1694 15.3911 17.3967 14.8022C17.6533 14.1151 17.7917 13.3895 17.8059 12.6562C17.8481 11.7141 17.8594 11.4103 17.8594 9C17.8594 6.58969 17.8495 6.29297 17.8059 5.34375C17.7914 4.60932 17.6521 3.88271 17.3939 3.195C17.1721 2.6037 16.8236 2.06806 16.373 1.62563C15.9302 1.17436 15.3941 0.82542 14.8022 0.603281C14.115 0.347181 13.3895 0.209294 12.6562 0.195469C11.7098 0.153281 11.4061 0.140625 9 0.140625Z" fill="#FCFAF2"/>
<path d="M9.00003 4.45219C8.10021 4.45219 7.22061 4.71903 6.47247 5.21897C5.72432 5.7189 5.14124 6.42948 4.79696 7.26082C4.45268 8.09216 4.36268 9.00693 4.53832 9.88943C4.71397 10.7719 5.14738 11.5825 5.78374 12.2187C6.4201 12.8548 7.23083 13.288 8.11338 13.4634C8.99593 13.6388 9.91067 13.5485 10.7419 13.2039C11.5731 12.8594 12.2835 12.2761 12.7832 11.5278C13.283 10.7795 13.5495 9.89981 13.5492 9C13.5492 8.40265 13.4316 7.81116 13.2029 7.2593C12.9743 6.70744 12.6392 6.20603 12.2167 5.78371C11.7943 5.36139 11.2928 5.02643 10.7408 4.79796C10.1889 4.5695 9.59737 4.452 9.00003 4.45219ZM9.00003 11.9531C8.41595 11.9531 7.845 11.7799 7.35936 11.4554C6.87372 11.1309 6.49521 10.6697 6.27169 10.1301C6.04818 9.5905 5.9897 8.99672 6.10364 8.42387C6.21759 7.85102 6.49885 7.32483 6.91185 6.91182C7.32485 6.49882 7.85105 6.21756 8.4239 6.10362C8.99675 5.98967 9.59052 6.04815 10.1301 6.27167C10.6698 6.49518 11.131 6.87369 11.4555 7.35933C11.78 7.84497 11.9531 8.41593 11.9531 9C11.9531 9.78322 11.642 10.5344 11.0882 11.0882C10.5344 11.642 9.78324 11.9531 9.00003 11.9531Z" fill="#FCFAF2"/>
<path d="M13.7293 5.33531C14.3164 5.33531 14.7924 4.85933 14.7924 4.27219C14.7924 3.68504 14.3164 3.20906 13.7293 3.20906C13.1421 3.20906 12.6661 3.68504 12.6661 4.27219C12.6661 4.85933 13.1421 5.33531 13.7293 5.33531Z" fill="#FCFAF2"/>
</g>
<defs>
<clipPath id="clip0_359_427">
<rect width="18" height="18" fill="white"/>
</clipPath>
</defs>
</svg>
