<svg width="18" height="16" viewBox="0 0 18 16" fill="none" xmlns="http://www.w3.org/2000/svg">
<path d="M16.0495 4.55188C16.0608 4.70797 16.0608 4.86547 16.0608 5.02156C16.0608 9.82672 12.4045 15.3659 5.71641 15.3659C3.73954 15.3688 1.80373 14.802 0.140625 13.7333C0.427237 13.7668 0.715503 13.7841 1.00406 13.7853C2.64155 13.7867 4.23194 13.2375 5.51953 12.2258C4.76005 12.2112 4.02417 11.9593 3.41512 11.5054C2.80606 11.0514 2.35438 10.4182 2.12344 9.69453C2.66808 9.79862 3.22927 9.77746 3.76453 9.63266C2.94237 9.46734 2.20258 9.02305 1.67034 8.37498C1.13809 7.72691 0.846095 6.91486 0.84375 6.07625V6.03125C1.34923 6.31271 1.91497 6.46849 2.49328 6.48547C1.7239 5.97121 1.17932 5.18316 0.970329 4.28164C0.761341 3.38011 0.903641 2.43283 1.36828 1.6325C2.2813 2.75515 3.42013 3.67332 4.7109 4.32743C6.00168 4.98154 7.41555 5.35697 8.86078 5.42938C8.68051 4.6501 8.76198 3.83315 9.0926 3.10482C9.42321 2.3765 9.98455 1.77737 10.6898 1.40008C11.3951 1.02279 12.205 0.888355 12.9944 1.01755C13.7837 1.14675 14.5085 1.53239 15.0567 2.11484C15.8705 1.9535 16.6508 1.65486 17.3644 1.23172C17.0931 2.07387 16.5248 2.78861 15.7655 3.24266C16.4881 3.15763 17.1939 2.9647 17.8594 2.67031C17.3727 3.40007 16.7598 4.03723 16.0495 4.55188Z" fill="#FCFAF2"/>
</svg>
