<svg width="18" height="14" viewBox="0 0 18 14" fill="none" xmlns="http://www.w3.org/2000/svg">
<path d="M15.1481 1.25828C13.9859 0.714398 12.7563 0.32802 11.4919 0.109375C11.3189 0.424869 11.1626 0.749221 11.0236 1.08109C9.6813 0.877184 8.3159 0.877184 6.9736 1.08109C6.83315 0.749169 6.67544 0.424819 6.5011 0.109375C5.23648 0.32796 4.00681 0.714833 2.84485 1.25969C0.53016 4.75 -0.101246 8.16297 0.217973 11.5211C1.56775 12.5398 3.08419 13.3163 4.69969 13.8161C5.06243 13.3215 5.38323 12.7975 5.65875 12.2495C5.13398 12.0537 4.6284 11.8098 4.14844 11.5211C4.275 11.4297 4.39172 11.3298 4.51688 11.23C5.91515 11.9027 7.44692 12.252 8.9986 12.252C10.5503 12.252 12.0821 11.9027 13.4803 11.23C13.6013 11.3298 13.7222 11.4297 13.8488 11.5211C13.3672 11.8087 12.8608 12.0525 12.3356 12.2495C12.6137 12.8032 12.9388 13.3321 13.3073 13.8302C14.9206 13.3256 16.4338 12.5443 17.7792 11.5211C18.1499 7.89617 17.2171 4.25774 15.1481 1.25828ZM6.05672 9.45812C5.18063 9.45812 4.46485 8.63969 4.46485 7.64687C4.46485 6.65406 5.16797 5.83281 6.05672 5.83281C6.94547 5.83281 7.66969 6.64844 7.65001 7.63703C7.63032 8.62562 6.94125 9.45812 6.05672 9.45812ZM11.9405 9.45812C11.0686 9.45812 10.3402 8.63969 10.3402 7.63C10.3402 6.62031 11.0433 5.81594 11.9334 5.81594C12.8236 5.81594 13.5408 6.63156 13.5253 7.63C13.5098 8.62844 12.832 9.45812 11.9405 9.45812Z" fill="#FCFAF2"/>
</svg>
