<svg width="52" height="47" viewBox="0 0 52 47" fill="none" xmlns="http://www.w3.org/2000/svg">
<g clip-path="url(#clip0_539_258)">
<path d="M50.2529 45.7084L52 43.9557L40.5287 32.4248L38.7586 34.1775L43.4942 38.9282L37.4713 44.9704L39.4942 46.9999L45.5172 40.9577L50.2529 45.7084Z" fill="#FCFAF2"/>
<path d="M34.9655 31.8255C36.3218 30.4648 36.3218 28.2278 34.9655 26.8672L28.6207 20.5021L26.5977 18.4727L18.8276 26.2676L20.8506 28.297L23.6782 25.4604L27.6552 29.4501V35.1233L30.1839 37.6601V31.9869C31.5632 33.2092 33.6552 33.163 34.9655 31.8485V31.8255ZM26.8736 22.2548L32.7586 28.1586C33.1494 28.5507 33.1494 29.2195 32.7586 29.6115C32.3678 30.0036 31.7012 30.0036 31.3103 29.6115L25.4253 23.7077L26.8736 22.2548Z" fill="#FCFAF2"/>
<path d="M15.1724 22.5775L13.2644 12.5918L22.5057 14.3675L19.1954 11.0466L12.7356 9.80128L11.5172 3.3209L8.18391 0L9.95402 9.27085L0 7.35672L3.31034 10.6776L10.4828 12.0613L11.8621 19.2566L15.1724 22.5775Z" fill="#FCFAF2"/>
</g>
<defs>
<clipPath id="clip0_539_258">
<rect width="52" height="47" fill="white"/>
</clipPath>
</defs>
</svg>
