<svg width="238" height="40" viewBox="0 0 238 40" fill="none" xmlns="http://www.w3.org/2000/svg">
<g clip-path="url(#clip0_579_1014)">
<path d="M90.193 15.8623L90.1372 15.8483C85.7354 14.6031 81.9332 13.5252 82.0122 10.6677C82.0912 7.86133 84.6291 6.11897 88.4825 6.22583C92.1685 6.32805 95.5709 7.57791 98.1692 9.76167C98.2854 9.85924 98.4342 9.915 98.5876 9.915C98.7642 9.915 99.0059 9.915 99.1965 9.915C99.3824 9.915 99.5544 9.83601 99.6799 9.70127L102.655 6.38845C102.762 6.26765 102.822 6.11432 102.822 5.95635V5.41738C102.822 5.23617 102.748 5.05961 102.608 4.93416C99.1268 1.81649 94.6366 0.157765 89.2262 0.00908295C81.0779 -0.218586 75.0307 4.37196 74.8494 10.9232C74.6216 19.124 82.1563 21.2148 88.2082 22.8968L88.3012 22.9246C92.8378 24.2349 96.7562 25.3686 96.6632 28.6768C96.5982 31.0185 94.5437 33.6948 88.9798 33.5414C85.0568 33.4299 81.3475 31.9245 78.4238 29.2761C78.303 29.1693 78.1496 29.1042 77.9869 29.1042C77.8196 29.1042 77.5965 29.1042 77.4245 29.1042C77.2386 29.1042 77.0666 29.1832 76.9457 29.318L73.9709 32.6308C73.864 32.7516 73.8036 32.9049 73.8036 33.0629V33.7133C73.8036 33.8853 73.8733 34.0572 73.9988 34.178C77.5918 37.6766 82.57 39.8232 88.5103 39.9905C100.953 40.339 103.752 33.6901 103.905 28.2447C104.142 19.8302 95.4082 17.3444 90.193 15.8623ZM32.1607 0.919758C32.0398 0.798954 31.8725 0.72926 31.7005 0.72926H26.5457C26.3737 0.72926 26.211 0.798954 26.0855 0.919758L25.6997 1.3054C25.5788 1.4262 25.5091 1.59347 25.5091 1.76074V16.4523C25.5091 16.536 25.4766 16.6196 25.4162 16.68L25.2209 16.8752C25.1605 16.9356 25.0768 16.9681 24.9932 16.9681H7.74384C7.66017 16.9681 7.57651 16.9356 7.51608 16.8752L7.32086 16.68C7.26043 16.6196 7.2279 16.536 7.2279 16.4523V1.76538C7.2279 1.59347 7.15817 1.43085 7.03732 1.3054L6.65152 0.919758C6.53067 0.798954 6.36334 0.72926 6.19135 0.72926H1.03654C0.864559 0.72926 0.701873 0.798954 0.576372 0.919758L0.190575 1.3054C0.0697225 1.4262 0 1.59347 0 1.76074V38.0623C0 38.2342 0.0697225 38.3968 0.190575 38.5223L0.576372 38.9079C0.697225 39.0287 0.864559 39.0984 1.03654 39.0984H6.19135C6.36334 39.0984 6.52602 39.0287 6.64688 38.9079L7.03267 38.5223C7.15353 38.4015 7.22325 38.2342 7.22325 38.0623V23.5333C7.22325 23.4497 7.25578 23.366 7.31621 23.3056L7.51143 23.1105C7.57186 23.0501 7.65553 23.0176 7.73919 23.0176H24.9885C25.0722 23.0176 25.1559 23.0501 25.2163 23.1105L25.4115 23.3056C25.4719 23.366 25.5045 23.4497 25.5045 23.5333V38.0623C25.5045 38.2342 25.5742 38.3968 25.6951 38.5223L26.0809 38.9079C26.2017 39.0287 26.369 39.0984 26.541 39.0984H31.6958C31.8678 39.0984 32.0305 39.0287 32.1514 38.9079L32.5372 38.5223C32.658 38.4015 32.7277 38.2342 32.7277 38.0623V1.76538C32.7277 1.59347 32.658 1.43085 32.5372 1.3054L32.1514 0.919758H32.1607ZM55.6385 18.6408C55.5874 18.5803 55.5595 18.506 55.5595 18.4317V18.1482C55.5595 18.0646 55.592 17.9903 55.6432 17.9299L70.7358 1.58883C70.7915 1.52842 70.8194 1.44944 70.8194 1.37045V1.0545C70.8194 0.877941 70.6753 0.72926 70.4941 0.72926H63.2987C63.0895 0.72926 62.8804 0.780369 62.6944 0.877941L61.7276 1.38903C61.5928 1.45873 61.472 1.5563 61.3697 1.66781L46.5793 18.1436C46.5188 18.2133 46.4119 18.2133 46.3422 18.1482L46.147 17.9531C46.1144 17.9206 46.1005 17.8834 46.1005 17.8369V1.76538C46.1005 1.59347 46.0308 1.43085 45.9099 1.3054L45.5241 0.919758C45.4033 0.798954 45.2359 0.72926 45.064 0.72926H39.9091C39.7372 0.72926 39.5745 0.798954 39.449 0.919758L39.0632 1.3054C38.9423 1.4262 38.8726 1.59347 38.8726 1.76074V38.0623C38.8726 38.2342 38.9423 38.3968 39.0632 38.5223L39.449 38.9079C39.5698 39.0287 39.7372 39.0984 39.9091 39.0984H45.064C45.2359 39.0984 45.3986 39.0287 45.5195 38.9079L45.9053 38.5223C46.0261 38.4015 46.0958 38.2342 46.0958 38.0623V28.5095C46.0958 28.3469 46.1563 28.1889 46.2678 28.0727L49.9213 24.1141C49.9817 24.049 50.07 24.0119 50.1583 24.0119H50.3443C50.4372 24.0119 50.5302 24.0537 50.5906 24.128L62.4713 38.1506C62.5736 38.2714 62.6991 38.3736 62.8432 38.4526L63.7589 38.9497C63.9494 39.052 64.1586 39.1077 64.3771 39.1077H72.0001C72.1767 39.1077 72.3254 38.9637 72.3254 38.7825V38.4572C72.3254 38.3829 72.2975 38.3085 72.2464 38.2481L55.6339 18.6454L55.6385 18.6408ZM124.808 18.6408C124.757 18.5803 124.729 18.506 124.729 18.4317V18.1482C124.729 18.0646 124.761 17.9903 124.813 17.9299L139.905 1.58883C139.961 1.52842 139.989 1.44944 139.989 1.37045V1.0545C139.989 0.877941 139.845 0.72926 139.663 0.72926H132.468C132.259 0.72926 132.05 0.780369 131.864 0.877941L130.897 1.38903C130.762 1.45873 130.641 1.5563 130.539 1.66781L115.749 18.1436C115.688 18.2133 115.581 18.2133 115.512 18.1482L115.316 17.9531C115.284 17.9206 115.27 17.8834 115.27 17.8369V1.76538C115.27 1.59347 115.2 1.43085 115.079 1.3054L114.693 0.919758C114.573 0.798954 114.405 0.72926 114.233 0.72926H109.078C108.906 0.72926 108.744 0.798954 108.618 0.919758L108.233 1.3054C108.112 1.4262 108.042 1.59347 108.042 1.76074V38.0623C108.042 38.2342 108.112 38.3968 108.233 38.5223L108.618 38.9079C108.739 39.0287 108.906 39.0984 109.078 39.0984H114.233C114.405 39.0984 114.568 39.0287 114.689 38.9079L115.075 38.5223C115.195 38.4015 115.265 38.2342 115.265 38.0623V28.5095C115.265 28.3469 115.326 28.1889 115.437 28.0727L119.091 24.1141C119.151 24.049 119.239 24.0119 119.328 24.0119H119.514C119.607 24.0119 119.7 24.0537 119.76 24.128L131.641 38.1506C131.743 38.2714 131.873 38.3736 132.013 38.4526L132.928 38.9497C133.119 39.052 133.328 39.1077 133.546 39.1077H141.169C141.346 39.1077 141.495 38.9637 141.495 38.7825V38.4572C141.495 38.3829 141.467 38.3085 141.416 38.2481L124.803 18.6454L124.808 18.6408Z" fill="#FCFAF2"/>
<path d="M227.1 18.2968C232.566 18.2968 237.015 22.7433 237.015 28.2073C237.015 33.6714 232.566 38.1179 227.1 38.1179H154.789C149.322 38.1179 144.874 33.6714 144.874 28.2073C144.874 22.7433 149.322 18.2968 154.789 18.2968H227.1ZM227.1 17.3164H154.789C148.769 17.3164 143.889 22.195 143.889 28.212C143.889 34.2289 148.769 39.1076 154.789 39.1076H227.1C233.119 39.1076 238 34.2289 238 28.212C238 22.195 233.119 17.3164 227.1 17.3164Z" fill="#FCFAF2"/>
<path d="M159.334 26.5633H159.311C157.55 26.0569 156.03 25.6294 156.062 24.4818C156.095 23.362 157.108 22.6604 158.651 22.7069C160.125 22.7487 161.487 23.2459 162.523 24.1194C162.57 24.1566 162.63 24.1798 162.69 24.1798C162.76 24.1798 162.858 24.1798 162.932 24.1798C163.006 24.1798 163.076 24.1473 163.123 24.0915L164.313 22.7673C164.354 22.7208 164.378 22.6604 164.378 22.5954V22.3817C164.378 22.3073 164.345 22.2376 164.294 22.1912C162.904 20.946 161.11 20.2815 158.944 20.2211C155.686 20.1282 153.264 21.9681 153.194 24.5887C153.101 27.8689 156.118 28.7053 158.54 29.379L158.577 29.3883C160.39 29.9133 161.961 30.364 161.923 31.6882C161.896 32.6268 161.078 33.6954 158.851 33.635C157.285 33.5932 155.797 32.9892 154.631 31.9298C154.584 31.888 154.519 31.8601 154.459 31.8601C154.393 31.8601 154.305 31.8601 154.231 31.8601C154.156 31.8601 154.087 31.8926 154.04 31.9484L152.85 33.2726C152.808 33.3191 152.785 33.3795 152.785 33.4445V33.7047C152.785 33.7744 152.813 33.8394 152.864 33.8906C154.3 35.2891 156.295 36.1487 158.67 36.2137C163.648 36.3531 164.768 33.6954 164.829 31.5163C164.922 28.1477 161.431 27.1581 159.344 26.5633H159.334Z" fill="#FCFAF2"/>
<path d="M212.756 36.0748C209.107 36.0748 206.778 33.6216 206.778 30.3924C206.778 27.1632 209.107 24.71 212.756 24.71C216.405 24.71 218.733 27.14 218.733 30.3924C218.733 33.6448 216.395 36.0748 212.756 36.0748ZM212.756 26.9448C210.413 26.9448 209.404 28.5943 209.404 30.3924C209.404 32.1905 210.413 33.8399 212.756 33.8399C215.098 33.8399 216.107 32.1905 216.107 30.3924C216.107 28.5943 215.098 26.9448 212.756 26.9448Z" fill="#FCFAF2"/>
<path d="M183.575 34.6987V35.4421C183.575 35.5118 183.603 35.5768 183.649 35.6233L183.802 35.7766C183.849 35.8231 183.919 35.851 183.984 35.851H185.843C185.913 35.851 185.978 35.8231 186.024 35.7766L186.178 35.6233C186.224 35.5768 186.252 35.5071 186.252 35.4421V25.3317C186.252 25.262 186.224 25.197 186.178 25.1505L186.024 24.9972C185.978 24.9507 185.908 24.9229 185.843 24.9229H183.984C183.914 24.9229 183.849 24.9507 183.802 24.9972L183.649 25.1505C183.603 25.197 183.575 25.2667 183.575 25.3317V30.7725C183.575 32.6543 182.687 33.8345 180.921 33.8345C179.154 33.8345 178.276 32.6589 178.276 30.7725V25.3317C178.276 25.262 178.248 25.197 178.201 25.1505L178.048 24.9972C178.001 24.9507 177.932 24.9229 177.867 24.9229H176.007C175.938 24.9229 175.873 24.9507 175.826 24.9972L175.673 25.1505C175.626 25.197 175.598 25.2667 175.598 25.3317V30.7725C175.598 34.2387 177.472 36.0693 180.502 36.0693C181.525 36.0693 182.803 35.6651 183.398 34.6011C183.421 34.5639 183.468 34.5546 183.5 34.5872L183.565 34.6522C183.565 34.6522 183.584 34.6801 183.584 34.6987H183.575Z" fill="#FCFAF2"/>
<path d="M203.473 23.2273C204.343 23.2273 205.049 22.5211 205.049 21.6522C205.049 20.7834 204.343 20.0771 203.473 20.0771C202.604 20.0771 201.898 20.7834 201.898 21.6522C201.898 22.5211 202.604 23.2273 203.473 23.2273Z" fill="#FCFAF2"/>
<path d="M204.747 25.1505L204.594 24.9972C204.547 24.9507 204.477 24.9229 204.412 24.9229H202.553C202.483 24.9229 202.418 24.9507 202.372 24.9972L202.218 25.1505C202.172 25.197 202.144 25.2667 202.144 25.3317V35.4421C202.144 35.5118 202.172 35.5768 202.218 35.6233L202.372 35.7766C202.418 35.8231 202.488 35.851 202.553 35.851H204.412C204.482 35.851 204.547 35.8231 204.594 35.7766L204.747 35.6233C204.793 35.5768 204.821 35.5071 204.821 35.4421V25.3317C204.821 25.262 204.793 25.197 204.747 25.1505Z" fill="#FCFAF2"/>
<path d="M197.091 34.4579V35.4429C197.091 35.5126 197.119 35.5777 197.166 35.6241L197.319 35.7775C197.366 35.8239 197.435 35.8518 197.501 35.8518H199.36C199.43 35.8518 199.495 35.8239 199.541 35.7775L199.694 35.6241C199.741 35.5777 199.769 35.508 199.769 35.4429V20.4958C199.769 20.4261 199.741 20.361 199.694 20.3146L199.541 20.1613C199.495 20.1148 199.425 20.0869 199.36 20.0869H197.501C197.431 20.0869 197.366 20.1148 197.319 20.1613L197.166 20.3146C197.119 20.361 197.091 20.4307 197.091 20.4958V26.3222C197.091 26.3222 197.087 26.3548 197.073 26.3687L197.003 26.4384C196.975 26.4663 196.924 26.4616 196.906 26.4291C196.134 25.2675 194.595 24.71 193.354 24.71C189.97 24.71 187.981 27.1632 187.981 30.3924C187.981 33.6216 189.97 36.0748 193.354 36.0748C194.591 36.0748 196.129 35.5173 196.906 34.3557C196.929 34.3232 196.975 34.3139 197.003 34.3464L197.073 34.4161C197.073 34.4161 197.091 34.444 197.091 34.4626V34.4579ZM193.912 33.826C191.644 33.826 190.733 32.1766 190.733 30.3924C190.733 28.6082 191.644 26.9588 193.912 26.9588C196.18 26.9588 197.091 28.6082 197.091 30.3924C197.091 32.1766 196.18 33.826 193.912 33.826Z" fill="#FCFAF2"/>
<path d="M173.279 33.6913C173.223 33.668 173.158 33.668 173.098 33.6866C172.768 33.7888 172.433 33.8399 172.038 33.8399C170.616 33.8399 170.462 32.7062 170.462 31.0336V27.3676C170.462 27.3351 170.476 27.3026 170.499 27.2747L170.578 27.1957C170.602 27.1725 170.634 27.1586 170.671 27.1586H173.177C173.246 27.1586 173.311 27.1307 173.358 27.0842L173.511 26.9309C173.558 26.8844 173.586 26.8147 173.586 26.7497V25.3419C173.586 25.2722 173.558 25.2071 173.511 25.1607L173.358 25.0073C173.311 24.9609 173.242 24.933 173.177 24.933H170.671C170.639 24.933 170.606 24.919 170.578 24.8958L170.499 24.8168C170.476 24.7936 170.462 24.7611 170.462 24.7239V22.1452C170.462 22.0755 170.434 22.0105 170.388 21.964L170.234 21.8107C170.188 21.7642 170.118 21.7363 170.053 21.7363H168.194C168.124 21.7363 168.059 21.7642 168.013 21.8107L167.859 21.964C167.813 22.0105 167.785 22.0802 167.785 22.1452V24.7239C167.785 24.7564 167.771 24.7889 167.748 24.8168L167.669 24.8958C167.645 24.919 167.613 24.933 167.576 24.933H166.088C166.019 24.933 165.953 24.9609 165.907 25.0073L165.754 25.1607C165.707 25.2071 165.679 25.2768 165.679 25.3419V26.7497C165.679 26.8194 165.707 26.8844 165.754 26.9309L165.907 27.0842C165.953 27.1307 166.023 27.1586 166.088 27.1586H167.576C167.608 27.1586 167.641 27.1725 167.669 27.1957L167.748 27.2747C167.771 27.298 167.785 27.3305 167.785 27.3676V31.0336C167.785 34.2674 168.533 36.0748 171.62 36.0748C172.261 36.0748 172.986 36.0098 173.753 35.7356C173.823 35.7124 173.874 35.6613 173.902 35.5916L173.99 35.3825C174.013 35.3268 174.018 35.2664 173.999 35.2106L173.632 33.9422C173.609 33.8678 173.553 33.8074 173.483 33.7749L173.288 33.6913H173.279Z" fill="#FCFAF2"/>
<path d="M221.471 32.8175H221.239C221.169 32.8175 221.104 32.8454 221.053 32.8918L220.105 33.849C220.058 33.8954 220.03 33.9651 220.03 34.0302V34.2439C220.03 34.3136 220.058 34.3833 220.114 34.4344C221.267 35.5031 222.805 36.0746 224.567 36.0839C226.203 36.0978 227.472 35.7029 228.225 34.9269C228.806 34.3322 229.103 33.5377 229.113 32.5573C229.127 30.0901 226.5 29.435 224.929 29.0447C223.707 28.7427 222.619 28.4732 222.629 27.7902C222.629 27.4557 222.782 27.1723 223.07 26.9725C224.162 26.2802 226.161 26.7866 227.109 27.5532C227.156 27.5904 227.212 27.6137 227.272 27.6137H227.504C227.574 27.6137 227.639 27.5858 227.69 27.5393L228.629 26.5961C228.676 26.5497 228.704 26.48 228.704 26.4149V26.2058C228.704 26.1315 228.671 26.0571 228.615 26.0107C227.537 25.0907 226.156 24.6354 224.506 24.6261C222.052 24.6121 220.263 25.9967 220.253 27.911C220.221 31.9765 226.579 30.6756 226.714 32.7292C226.724 33.3147 226.143 34.007 224.66 33.993C223.567 33.9884 222.498 33.6167 221.638 32.8826C221.592 32.8407 221.532 32.8175 221.471 32.8175Z" fill="#FCFAF2"/>
</g>
<defs>
<clipPath id="clip0_579_1014">
<rect width="238" height="40" fill="white"/>
</clipPath>
</defs>
</svg>
