<svg width="98" height="76" viewBox="0 0 98 76" fill="none" xmlns="http://www.w3.org/2000/svg">
<g clip-path="url(#clip0_538_2)">
<path d="M95.649 28.6955L65.8635 17.9218C65.7597 17.8874 65.7597 17.7328 65.8635 17.6984L84.3087 11.0314C84.3087 11.0314 84.4297 10.9627 84.447 10.894L88.3538 0.154646C88.3538 0.154646 88.3193 0 88.2328 0H26.7257C26.7257 0 26.5874 0.0859145 26.6047 0.154646L30.114 9.70834C30.1485 9.81144 30.235 9.86299 30.3387 9.86299H51.0139C51.0139 9.86299 51.1177 9.89735 51.1349 9.9489L51.4461 10.808C51.4461 10.808 51.4461 10.9455 51.377 10.9627L29.8719 18.7466C29.8719 18.7466 29.7336 18.7466 29.7164 18.6778L22.9226 0.154646C22.888 0.0515487 22.8016 0 22.6978 0H9.74987C9.74987 0 9.61157 0.0859145 9.62886 0.154646L17.9612 22.922C17.9612 22.922 17.9612 23.0595 17.892 23.0766L2.35103 28.6955C2.35103 28.6955 2.21274 28.7986 2.19545 28.8845L0 41.3249C0 41.4108 0.069148 41.4967 0.155583 41.4624L21.7643 33.6441C21.7643 33.6441 21.9026 33.6441 21.9199 33.7129L26.7948 47.0124C26.7948 47.0124 26.8986 47.1499 26.985 47.1671L40.6072 48.9541C40.6936 48.9541 40.7627 48.8854 40.7282 48.7995L33.6578 29.4687C33.6578 29.4687 33.6578 29.3312 33.7269 29.314L48.8703 23.8327C48.8703 23.8327 49.0432 23.7983 49.1124 23.8327L64.2558 29.314C64.2558 29.314 64.3422 29.4 64.3249 29.4687L57.2545 48.7995C57.2545 48.7995 57.2891 48.9713 57.3755 48.9541L70.9977 47.1671C71.0841 47.1671 71.1706 47.0984 71.1879 47.0124L76.0628 33.7129C76.0628 33.7129 76.1492 33.6269 76.2184 33.6441L97.8271 41.4624C97.9136 41.4967 98 41.428 97.9827 41.3249L95.77 28.8845C95.77 28.8845 95.7008 28.7298 95.6144 28.6955H95.649Z" fill="#FCFAF2"/>
<path d="M96.4442 62.9581V59.1606H71.4126V62.9581H81.7156V75.9999H86.1238V62.9581H96.4442Z" fill="#FCFAF2"/>
<path d="M64.7053 64.5217C64.7053 61.5662 62.2851 59.1606 59.3117 59.1606H41.0566V75.9999H45.4648V69.8828H54.1429L60.2971 75.9999H65.8116L59.6402 69.8656C62.4579 69.6938 64.7053 67.3741 64.7053 64.5217ZM45.4648 62.9581H58.2918C59.1561 62.9581 59.8649 63.6626 59.8649 64.5217C59.8649 65.3809 59.1561 66.0854 58.2918 66.0854H45.4648V62.9581Z" fill="#FCFAF2"/>
<path d="M33.0873 75.9999L20.1566 67.271L32.1538 59.1606H24.9279L16.5437 64.831L8.15946 59.1606H0.933498L12.9307 67.271L0 75.9999H7.22597L16.5437 69.6938L25.8614 75.9999H33.0873Z" fill="#FCFAF2"/>
</g>
<defs>
<clipPath id="clip0_538_2">
<rect width="98" height="76" fill="white"/>
</clipPath>
</defs>
</svg>
