<svg width="174" height="29" viewBox="0 0 174 29" fill="none" xmlns="http://www.w3.org/2000/svg">
<path d="M10.8379 28.501C4.45508 28.501 0.1875 24.5488 0.1875 18.5742V10.1689C0.1875 4.25 4.45508 0.297852 10.8379 0.297852C17.2207 0.297852 21.4697 4.25 21.4697 10.1689V18.5742C21.4697 24.5488 17.2207 28.501 10.8379 28.501ZM5.21582 18.2402C5.21582 21.7285 7.46094 24.0479 10.8379 24.0479C14.2148 24.0479 16.46 21.7285 16.46 18.2402V10.5586C16.46 7.07031 14.2148 4.75098 10.8379 4.75098C7.46094 4.75098 5.21582 7.07031 5.21582 10.5586V18.2402Z" fill="#FCFAF2"/>
<path d="M26.0513 28V0.798828H31.0796L38.4458 5.15918C39.893 6.03125 40.9507 5.38184 40.9507 3.71191V0.798828H45.979V28H40.9507V13.7129C40.9507 12.5811 40.5425 11.7832 39.5405 11.208L33.5845 7.66406C32.1372 6.8291 31.0796 7.44141 31.0796 9.11133V28H26.0513Z" fill="#FCFAF2"/>
<path d="M51.2099 0.798828H56.2382V28H51.2099V0.798828Z" fill="#FCFAF2"/>
<path d="M60.6713 15.457H74.3276V19.7246H60.6713V15.457Z" fill="#FCFAF2"/>
<path d="M88.7245 28.501C82.3417 28.501 78.0741 24.5488 78.0741 18.5742V10.1689C78.0741 4.25 82.3417 0.297852 88.7245 0.297852C95.1073 0.297852 99.3564 4.25 99.3564 10.373V12.7295H94.3466V10.373C94.3466 7.07031 92.1015 4.75098 88.7245 4.75098C85.3476 4.75098 83.1025 7.07031 83.1025 10.5586V18.2402C83.1025 21.7285 85.3476 24.0479 88.7245 24.0479C92.1015 24.0479 94.3466 21.7285 94.3466 18.3887V16.0693H99.3564V18.3887C99.3564 24.5488 95.1073 28.501 88.7245 28.501Z" fill="#FCFAF2"/>
<path d="M103.938 28V0.798828H108.966V6.27246C108.966 7.47852 109.875 8.3877 111.081 8.3877H116.722C117.928 8.3877 118.837 7.47852 118.837 6.27246V0.798828H123.866V28H118.837V14.7705C118.837 13.5645 117.928 12.6553 116.722 12.6553H111.081C109.875 12.6553 108.966 13.5645 108.966 14.7705V28H103.938Z" fill="#FCFAF2"/>
<path d="M127.26 28L134.496 0.798828H142.549L149.766 28H144.441L143.903 25.9404C143.866 25.7549 143.421 24.1592 141.547 24.1592H135.238C133.346 24.1592 132.937 25.7549 132.882 25.9404L132.362 28H127.26ZM135.127 17.5908C135.053 17.9619 134.719 19.9102 136.964 19.9102H139.84C142.085 19.9102 141.751 17.9619 141.677 17.5908L138.893 5.47461C138.856 5.2334 138.708 4.97363 138.392 4.97363C138.058 4.97363 137.947 5.2334 137.91 5.47461L135.127 17.5908Z" fill="#FCFAF2"/>
<path d="M153.179 28V0.798828H158.207L165.574 5.15918C167.021 6.03125 168.078 5.38184 168.078 3.71191V0.798828H173.107V28H168.078V13.7129C168.078 12.5811 167.67 11.7832 166.668 11.208L160.712 7.66406C159.265 6.8291 158.207 7.44141 158.207 9.11133V28H153.179Z" fill="#FCFAF2"/>
</svg>
