<svg width="127" height="29" viewBox="0 0 127 29" fill="none" xmlns="http://www.w3.org/2000/svg">
<path d="M0.855469 28V0.798828H16.2188C19.6699 0.798828 22.1748 3.30371 22.1748 6.71777C22.1748 10.1318 19.6699 12.6553 16.2188 12.6553H15.1797C14.4375 12.6553 14.085 13.0264 14.085 13.4902C14.085 13.7129 14.1777 13.9727 14.3076 14.2139L21.9521 28H16.1445L8.42578 13.75C8.25879 13.4531 7.85059 12.6553 7.01562 12.6553C6.03223 12.6553 5.88379 13.4531 5.88379 14.0098V28H0.855469ZM5.88379 6.71777C5.88379 7.73828 6.60742 8.3877 7.81348 8.3877H15.2354C16.4414 8.3877 17.165 7.73828 17.165 6.71777C17.165 5.69727 16.4414 5.04785 15.2354 5.04785H7.81348C6.60742 5.04785 5.88379 5.69727 5.88379 6.71777Z" fill="#FCFAF2"/>
<path d="M40.6723 0.798828H45.8305L36.8315 28H31.7104L33.102 23.751C33.5473 22.415 32.6567 21.1533 31.2466 21.1533H30.2075L23.3794 0.798828H28.7788L33.937 16.4775C34.0854 16.9414 34.2895 17.2012 34.6235 17.2012C34.9761 17.2012 35.1616 16.9414 35.31 16.4775L40.6723 0.798828Z" fill="#FCFAF2"/>
<path d="M58.6132 28.3711C52.6943 28.3711 48.7421 24.4189 48.7421 18.4629V0.798828H53.7519V18.5C53.7519 21.7656 55.7002 23.9365 58.6132 23.9365C61.5449 23.9365 63.4931 21.7656 63.4931 18.5V0.798828H68.5029V18.4629C68.5029 24.4189 64.5507 28.3711 58.6132 28.3711Z" fill="#FCFAF2"/>
<path d="M81.5268 28.3711C75.6821 28.3711 71.767 24.5117 71.767 18.6484L76.7768 18.6855C76.7768 21.8398 78.6879 23.9365 81.5268 23.9365C84.4213 23.9365 86.3325 21.8398 86.3325 18.6855V0.798828H91.3422V18.6484C91.3422 24.5117 87.4272 28.3711 81.5268 28.3711Z" fill="#FCFAF2"/>
<path d="M96.3691 0.798828H101.397V28H96.3691V0.798828Z" fill="#FCFAF2"/>
<path d="M106.647 28V0.798828H111.675L119.041 5.15918C120.489 6.03125 121.546 5.38184 121.546 3.71191V0.798828H126.575V28H121.546V13.7129C121.546 12.5811 121.138 11.7832 120.136 11.208L114.18 7.66406C112.733 6.8291 111.675 7.44141 111.675 9.11133V28H106.647Z" fill="#FCFAF2"/>
</svg>
