<svg width="120" height="29" viewBox="0 0 120 29" fill="none" xmlns="http://www.w3.org/2000/svg">
<path d="M0.855469 28V0.798828H5.88379V6.8291C5.88379 7.62695 6.14355 8.3877 7.05273 8.3877C7.85059 8.3877 8.42578 7.73828 8.64844 7.51562L15.1797 0.798828H21.5439L13.3242 9.50098C13.0273 9.79785 12.5264 10.5957 13.0645 11.5791L22.1377 28H16.3301L8.42578 13.5273C8.24023 13.2119 7.96191 12.5811 7.05273 12.5811C6.03223 12.5811 5.88379 13.3232 5.88379 14.0469V28H0.855469Z" fill="#FCFAF2"/>
<path d="M33.2876 28.501C26.9048 28.501 22.6372 24.5488 22.6372 18.5742V10.1689C22.6372 4.25 26.9048 0.297852 33.2876 0.297852C39.6704 0.297852 43.9194 4.25 43.9194 10.1689V18.5742C43.9194 24.5488 39.6704 28.501 33.2876 28.501ZM27.6655 18.2402C27.6655 21.7285 29.9106 24.0479 33.2876 24.0479C36.6645 24.0479 38.9096 21.7285 38.9096 18.2402V10.5586C38.9096 7.07031 36.6645 4.75098 33.2876 4.75098C29.9106 4.75098 27.6655 7.07031 27.6655 10.5586V18.2402Z" fill="#FCFAF2"/>
<path d="M58.4834 28.501C52.1005 28.501 47.833 24.5488 47.833 18.5742V10.1689C47.833 4.25 52.1005 0.297852 58.4834 0.297852C64.8662 0.297852 69.1152 4.25 69.1152 10.373V12.7295H64.1054V10.373C64.1054 7.07031 61.8603 4.75098 58.4834 4.75098C55.1064 4.75098 52.8613 7.07031 52.8613 10.5586V18.2402C52.8613 21.7285 55.1064 24.0479 58.4834 24.0479C61.8603 24.0479 64.1054 21.7285 64.1054 18.3887V16.0693H69.1152V18.3887C69.1152 24.5488 64.8662 28.501 58.4834 28.501Z" fill="#FCFAF2"/>
<path d="M73.6967 28V0.798828H78.725V6.27246C78.725 7.47852 79.6342 8.3877 80.8403 8.3877H86.4809C87.687 8.3877 88.5961 7.47852 88.5961 6.27246V0.798828H93.6245V28H88.5961V14.7705C88.5961 13.5645 87.687 12.6553 86.4809 12.6553H80.8403C79.6342 12.6553 78.725 13.5645 78.725 14.7705V28H73.6967Z" fill="#FCFAF2"/>
<path d="M108.838 28.501C102.455 28.501 98.1874 24.5488 98.1874 18.5742V10.1689C98.1874 4.25 102.455 0.297852 108.838 0.297852C115.221 0.297852 119.47 4.25 119.47 10.1689V18.5742C119.47 24.5488 115.221 28.501 108.838 28.501ZM103.216 18.2402C103.216 21.7285 105.461 24.0479 108.838 24.0479C112.215 24.0479 114.46 21.7285 114.46 18.2402V10.5586C114.46 7.07031 112.215 4.75098 108.838 4.75098C105.461 4.75098 103.216 7.07031 103.216 10.5586V18.2402Z" fill="#FCFAF2"/>
</svg>
