<svg xmlns="http://www.w3.org/2000/svg" width="1542.665" height="78.15" viewBox="0 0 1542.665 78.15">
  <g id="asset_scroll-text" transform="translate(-0.475 -0.3)">
    <path id="パス_2" data-name="パス 2" d="M30.4,57.9C14.05,57.9.475,44.85.475,28.8.475,13.125,13.825.3,30.175.3c6.6,0,14.025,1.5,18.45,3.675V5.25L50.65,19.725C45.325,8.025,38.8,1.875,30.175,1.95c-11.775,0-19.5,10.95-19.5,26.85,0,16.425,7.725,27.45,19.725,27.45,8.625.075,15.3-6.3,21.075-19.35L49,52.95v1.275C44.575,56.475,37.075,57.975,30.4,57.9Zm45.979,0a20.311,20.311,0,0,1-20.1-20.4,20.028,20.028,0,1,1,20.1,20.4Zm0-1.2c6.6,0,10.425-6.75,10.425-19.125C86.8,25.65,83.053,18.9,76.379,18.9c-6.75,0-10.5,6.525-10.5,18.675C65.879,49.8,69.629,56.7,76.379,56.7ZM100,57l4.725-3.3V26.1l-5.25-2.175L113.652,17.7v6.75c4.65-3,10.65-6.75,14.175-6.75,6.225,0,10.65,4.5,10.65,11.25V53.7l4.65,3.3H124.452l5.1-3.3V29.4c0-4.2-2.85-7.425-6.45-7.425-2.85,0-6.3,1.725-9.45,3.525V53.7l5.025,3.3Zm46.216,0,4.725-3.3V26.1l-5.25-2.175L159.868,17.7v6.75c4.65-3,10.65-6.75,14.175-6.75,6.225,0,10.65,4.5,10.65,11.25V53.7l4.65,3.3H170.668l5.1-3.3V29.4c0-4.2-2.85-7.425-6.45-7.425-2.85,0-6.3,1.725-9.45,3.525V53.7l5.025,3.3Zm64.441.9c-10.65,0-18.15-7.65-18.15-19.2,0-12.3,7.725-21,18.375-21,8.925,0,15,5.85,15,14.475v.6h-24.3c0,.825-.075,1.575-.075,2.4,0,9.6,5.175,16.425,13.125,16.425,6.075,0,10.275-3.6,12.375-10.5C225.434,51.6,219.209,57.9,210.659,57.9Zm-8.925-26.325h13.2c1.875,0,2.55-1.2,2.55-3.075,0-5.1-2.775-9.6-6.6-9.6C206.234,18.9,202.634,23.925,201.734,31.575ZM249.4,57.9c-10.65,0-18.15-7.575-18.15-19.35,0-12.3,8.025-20.85,18.825-20.85,7.875,0,13.95,4.05,13.95,8.55a3.656,3.656,0,0,1-3.6,3.975c-6.375,0-3.75-11.325-10.35-11.325-5.85,0-9.825,6.825-9.825,15.9,0,9.75,5.175,16.575,13.125,16.575,6.075,0,10.275-3.375,12.375-10.275C264.179,51.6,257.954,57.9,249.4,57.9Zm34.648,0c-6.6,0-10.875-3.75-10.65-10.05l1.05-23.25-7.05-2.55,6-4.875V12l9.075-4.125V19.5h12.675v3.15H282.477V47.325c0,3.525,2.7,5.925,6.825,5.925a11.249,11.249,0,0,0,8.625-4.5C295,54.075,289.452,57.9,284.052,57.9Zm28.237-47.325H302.164V.3h10.125ZM298.489,57l4.725-3.3V26.025l-5.25-2.1L312.139,17.7v36l4.8,3.3Zm21.533,0,4.725-3.3V26.1l-5.25-2.175L333.672,17.7v6.75c4.65-3,10.65-6.75,14.175-6.75,6.225,0,10.65,4.5,10.65,11.25V53.7l4.65,3.3H344.472l5.1-3.3V29.4c0-4.2-2.85-7.425-6.45-7.425-2.85,0-6.3,1.725-9.45,3.525V53.7L338.7,57Zm59.869,21.45c-9.45,0-16.575-4.275-16.575-9.975,0-3.825,4.125-6.75,8.925-8.025v-.675c-3.375-1.05-5.4-3.45-5.4-6.525,0-3.3,2.7-6.6,7.275-10.05a13.392,13.392,0,0,1-6.075-11.025c0-8.1,7.05-14.475,15.975-14.475,4.875,0,6.225,1.875,11.25,1.875h8.925v3.15h-8.1a13.79,13.79,0,0,1,3.675,9.45c0,7.8-6.975,14.025-15.75,14.025a17.027,17.027,0,0,1-9-2.475c-1.875,1.575-3.075,3.525-3.075,5.175,0,2.175,1.8,3.6,4.425,3.6h18.525c5.7,0,9.675,2.7,9.675,7.5C404.566,69.75,390.616,78.45,379.891,78.45ZM384.016,45c4.425,0,7.125-4.65,7.125-12.825,0-8.325-2.7-13.275-7.125-13.275-4.65,0-7.425,4.875-7.425,13.275C376.591,40.2,379.366,45,384.016,45Zm1.275,28.8c9-.15,15.525-4.275,15.525-9.3,0-2.55-1.725-4.05-5.55-4.05h-17.85c-4.35,0-6.75,2.25-6.75,5.25C370.666,70.425,376.741,73.95,385.291,73.8ZM992.37,57.9c-16.35,0-29.925-13.05-29.925-29.1,0-15.675,13.35-28.5,29.7-28.5,6.6,0,14.025,1.5,18.445,3.675V5.25l2.03,14.475c-5.33-11.7-11.85-17.85-20.475-17.775-11.775,0-19.5,10.95-19.5,26.85,0,16.425,7.725,27.45,19.725,27.45,8.62.075,15.3-6.3,21.07-19.35l-2.47,16.05v1.275C1006.54,56.475,999.045,57.975,992.37,57.9Zm45.98,0a20.308,20.308,0,0,1-20.1-20.4,20.028,20.028,0,1,1,20.1,20.4Zm0-1.2c6.6,0,10.42-6.75,10.42-19.125,0-11.925-3.75-18.675-10.42-18.675-6.75,0-10.5,6.525-10.5,18.675C1027.85,49.8,1031.6,56.7,1038.35,56.7Zm23.62.3,4.73-3.3V26.1l-5.25-2.175,14.17-6.225v5.925c4.5-2.925,9.75-5.925,12.98-5.925a10.313,10.313,0,0,1,9.75,6.45c4.57-3,10.35-6.45,13.87-6.45,6,0,10.58,4.5,10.58,11.25V53.7l4.65,3.3h-18.6l5.02-3.3V29.4c0-4.2-2.85-7.425-6.45-7.425-2.62,0-5.77,1.35-8.77,3.075a13.075,13.075,0,0,1,.52,3.9V53.7l4.95,3.3h-18.9l5.1-3.3V29.4c0-4.2-2.85-7.425-6.37-7.425-2.48,0-5.55,1.2-8.33,2.775V53.7l5.03,3.3Zm68.56,0,4.72-3.3V26.1L1130,23.925l14.18-6.225v5.925c4.5-2.925,9.75-5.925,12.97-5.925a10.3,10.3,0,0,1,9.75,6.45c4.58-3,10.35-6.45,13.88-6.45,6,0,10.57,4.5,10.57,11.25V53.7L1196,57h-18.6l5.03-3.3V29.4c0-4.2-2.85-7.425-6.45-7.425-2.63,0-5.78,1.35-8.78,3.075a12.755,12.755,0,0,1,.53,3.9V53.7l4.95,3.3h-18.9l5.1-3.3V29.4c0-4.2-2.85-7.425-6.38-7.425-2.47,0-5.55,1.2-8.32,2.775V53.7l5.02,3.3Zm83.12.9c-6.15,0-10.58-4.425-10.58-11.175V26.1l-5.25-2.175L1212,17.7V46.425a6.675,6.675,0,0,0,6.6,6.9c2.47,0,5.92-1.275,9.22-3.225v-24l-5.25-2.175,14.18-6.225V51.225l4.95,1.5-13.88,5.4V51.15C1223.7,53.925,1217.62,57.9,1213.65,57.9Zm31.13-.9,4.73-3.3V26.1l-5.25-2.175,14.17-6.225v6.75c4.65-3,10.65-6.75,14.18-6.75,6.22,0,10.65,4.5,10.65,11.25V53.7l4.65,3.3h-18.68l5.1-3.3V29.4c0-4.2-2.85-7.425-6.45-7.425-2.85,0-6.3,1.725-9.45,3.525V53.7l5.03,3.3Zm60.02-46.425h-10.12V.3h10.12ZM1291,57l4.73-3.3V26.025l-5.25-2.1,14.17-6.225v36l4.8,3.3Zm39.76.9c-10.65,0-18.15-7.575-18.15-19.35,0-12.3,8.02-20.85,18.82-20.85,7.88,0,13.95,4.05,13.95,8.55a3.656,3.656,0,0,1-3.6,3.975c-6.37,0-3.75-11.325-10.35-11.325-5.85,0-9.82,6.825-9.82,15.9,0,9.75,5.17,16.575,13.12,16.575,6.08,0,10.28-3.375,12.38-10.275C1345.53,51.6,1339.31,57.9,1330.76,57.9Zm29.53,0c-5.25,0-8.85-3.3-8.85-7.95,0-7.35,13.65-12.3,23.85-16.725v-3.6c0-5.4-3.38-9.225-8.03-9.225a8.02,8.02,0,0,0-4.65,1.35c-4.27,2.775-1.57,12.825-7.57,12.825a3.832,3.832,0,0,1-3.83-4.125c0-6.525,15.38-12.75,21-12.75,7.13,0,11.93,4.725,11.93,11.625v21.75l4.95,1.425-13.8,5.4V49.2C1370.86,54,1365.69,57.9,1360.29,57.9Zm5.92-4.8c3.3,0,6.3-2.475,9.08-5.625V34.5c-8.25,3.45-15.08,7.05-15.08,12.675A5.692,5.692,0,0,0,1366.21,53.1Zm39.77,4.8c-6.6,0-10.87-3.75-10.65-10.05l1.05-23.25-7.05-2.55,6-4.875V12l9.08-4.125V19.5h12.67v3.15h-12.67V47.325c0,3.525,2.7,5.925,6.82,5.925a11.258,11.258,0,0,0,8.63-4.5C1416.93,54.075,1411.38,57.9,1405.98,57.9Zm28.24-47.325h-10.13V.3h10.13ZM1420.42,57l4.72-3.3V26.025l-5.25-2.1,14.18-6.225v36l4.8,3.3Zm41.71.9a20.308,20.308,0,0,1-20.1-20.4,20.028,20.028,0,1,1,20.1,20.4Zm0-1.2c6.6,0,10.42-6.75,10.42-19.125,0-11.925-3.75-18.675-10.42-18.675-6.75,0-10.5,6.525-10.5,18.675C1451.63,49.8,1455.38,56.7,1462.13,56.7Zm23.62.3,4.73-3.3V26.1l-5.25-2.175L1499.4,17.7v6.75c4.65-3,10.65-6.75,14.18-6.75,6.22,0,10.65,4.5,10.65,11.25V53.7l4.65,3.3H1510.2l5.1-3.3V29.4c0-4.2-2.85-7.425-6.45-7.425-2.85,0-6.3,1.725-9.45,3.525V53.7l5.03,3.3Zm57.39.6h-10.2V46.95h10.2Z" fill="#4d4f5a"/>
    <path id="パス_3" data-name="パス 3" d="M440.9,57V1.166h31.535a11.806,11.806,0,0,1,12.225,12.149A11.837,11.837,0,0,1,472.431,25.5H470.3c-1.524,0-2.247.762-2.247,1.714a3.335,3.335,0,0,0,.457,1.485L484.2,57H472.278L456.435,27.75c-.343-.609-1.181-2.247-2.895-2.247-2.019,0-2.323,1.638-2.323,2.78V57Zm10.321-43.685c0,2.095,1.485,3.428,3.961,3.428h15.234c2.476,0,3.961-1.333,3.961-3.428s-1.485-3.428-3.961-3.428H455.178C452.7,9.888,451.217,11.221,451.217,13.315Zm51.946,44.446c-8.646,0-14.435-4.8-14.435-12.073V29.083c0-7.274,5.789-12.111,14.435-12.111,8.455,0,14.054,4.837,14.054,13.521v9.826H501.144a2.107,2.107,0,0,0-2.323,2.323v1.638c0,2.818,1.714,4.685,4.342,4.685,2.666,0,4.38-1.866,4.38-4.685V43.4h9.674v2.285C517.217,52.963,511.618,57.762,503.163,57.762Zm-4.342-26.508a2.135,2.135,0,0,0,2.323,2.361h4.076a2.153,2.153,0,0,0,2.323-2.361v-.762c0-2.895-1.714-4.761-4.38-4.761-2.628,0-4.342,1.866-4.342,4.761Zm36.712,26.2c-6.779,0-11.616-4.494-11.616-11.464,0-6.855,4.76-11.692,12.111-11.692h2.78a4.18,4.18,0,0,0,4.456-4.3,4.088,4.088,0,0,0-4.3-4.266,4.2,4.2,0,0,0-4.418,4.418v1.638H524.488V30c0-7.77,5.827-13.025,14.587-13.025,8.95,0,14.168,4.837,14.168,12.492V57h-9.9V54.41C540.979,56.962,538.656,57.457,535.533,57.457Zm-1.485-12.226a3.691,3.691,0,0,0,4,3.809h1.561a3.83,3.83,0,1,0,0-7.655h-1.561A3.7,3.7,0,0,0,534.048,45.231ZM571.94,1.166V57h-9.9V1.166Zm34.576,56.291c-6.779,0-11.616-4.494-11.616-11.464,0-6.855,4.761-11.692,12.111-11.692h2.78a4.18,4.18,0,0,0,4.456-4.3,4.088,4.088,0,0,0-4.3-4.266,4.2,4.2,0,0,0-4.418,4.418v1.638H595.471V30c0-7.77,5.827-13.025,14.587-13.025,8.95,0,14.168,4.837,14.168,12.492V57h-9.9V54.41C611.962,56.962,609.639,57.457,606.516,57.457Zm-1.485-12.226a3.691,3.691,0,0,0,4,3.809h1.561a3.83,3.83,0,1,0,0-7.655H609.03A3.7,3.7,0,0,0,605.031,45.231Zm37.892-24.87a10.171,10.171,0,0,1,7.617-3.047c6.475,0,11.007,4.646,11.007,11.768V57h-9.9V30.492c0-2.895-1.714-4.761-4.38-4.761-2.628,0-4.342,1.866-4.342,4.761V57h-9.9V18h9.9ZM688.2,54.639a10.259,10.259,0,0,1-7.655,3.047c-6.475,0-11.007-4.646-11.007-11.769V29.007c0-7.122,4.532-11.768,11.007-11.768a10.259,10.259,0,0,1,7.655,3.047V1.166h9.9V57h-9.9Zm-8.721-10.131c0,2.895,1.713,4.761,4.341,4.761,2.666,0,4.38-1.866,4.38-4.761V30.416c0-2.895-1.714-4.761-4.38-4.761-2.628,0-4.341,1.866-4.341,4.761Zm62.34-43.342c12.607,0,21.823,8.874,21.823,21.061V35.862C763.646,48.012,754.43,57,741.823,57H723.466V1.166Zm-8.036,43.685c0,2.018,1.714,3.428,3.961,3.428h2.514a12.729,12.729,0,0,0,13.1-13.1V22.989a12.707,12.707,0,0,0-13.1-13.1h-2.514c-2.247,0-3.961,1.409-3.961,3.428ZM772.175,57V18h9.9V57ZM771.3,8.783a5.884,5.884,0,1,1,5.941,5.941A5.9,5.9,0,0,1,771.3,8.783Zm35.036,35.268H801.65c-1.79,0-2.856.876-2.856,2.247,0,1.485,1.066,2.514,2.856,2.514h10.4c8.036,0,13.025,4.38,13.025,11.54,0,7.655-4.989,12.264-13.025,12.264h-10.7c-8.112,0-12.149-3.847-12.149-9.6a8.285,8.285,0,0,1,3.885-7.5,8.857,8.857,0,0,1-3.809-7.731c0-4.266,2.057-7.389,5.675-8.874a11.2,11.2,0,0,1-2.552-7.2V29.388c0-7.351,5.675-12.34,13.94-12.34a16.124,16.124,0,0,1,9.9,3.009A8.61,8.61,0,0,1,822.255,18h4.456v7.808h-3.58a2.062,2.062,0,0,0-2.362,2.171v3.732C820.769,38.985,814.9,44.051,806.335,44.051Zm-7.541,16.758c0,2.209,1.714,3.542,4.113,3.542h7.427c2.78,0,4.494-1.333,4.494-3.542,0-2.095-1.714-3.352-4.494-3.352h-7.427C800.584,57.457,798.794,58.714,798.794,60.809Zm3.161-29.555a4.238,4.238,0,0,0,4.456,4.456c2.818,0,4.761-1.79,4.761-4.456V29.845a4.481,4.481,0,0,0-4.761-4.608,4.383,4.383,0,0,0-4.456,4.608ZM832.573,57V18h9.9V57ZM831.7,8.783a5.884,5.884,0,1,1,5.941,5.941A5.9,5.9,0,0,1,831.7,8.783Zm31.646,7.655A1.391,1.391,0,0,0,864.905,18h4.608v7.808h-4.608a1.391,1.391,0,0,0-1.562,1.562V57h-9.9V27.369a1.39,1.39,0,0,0-1.562-1.562h-2.742V18h2.742a1.39,1.39,0,0,0,1.562-1.562V8.859h9.9ZM885.43,57.457c-6.779,0-11.616-4.494-11.616-11.464,0-6.855,4.761-11.692,12.111-11.692h2.78a4.18,4.18,0,0,0,4.456-4.3,4.088,4.088,0,0,0-4.3-4.266,4.2,4.2,0,0,0-4.418,4.418v1.638H874.385V30c0-7.77,5.827-13.025,14.587-13.025,8.95,0,14.168,4.837,14.168,12.492V57h-9.9V54.41C890.876,56.962,888.553,57.457,885.43,57.457Zm-1.485-12.226a3.691,3.691,0,0,0,4,3.809h1.561a3.83,3.83,0,1,0,0-7.655h-1.561A3.7,3.7,0,0,0,883.945,45.231ZM921.837,1.166V57h-9.9V1.166Z" fill="#95fe1a"/>
  </g>
</svg>
