<svg width="782" height="277" viewBox="0 0 782 277" fill="none" xmlns="http://www.w3.org/2000/svg">
<path d="M311.175 79L288.483 79L298.155 73.048L319.08 46.45L297.969 16.039L289.134 10.18L322.521 10.18L312.198 16.039L327.543 38.173H329.031L345.399 16.039L334.89 10.18L357.582 10.18L348.096 16.039L329.403 40.963L351.63 73.048L360.558 79H327.264L337.587 73.141L320.94 49.054H319.359L300.759 73.141L311.175 79ZM362.978 79L370.139 73.885V15.76L362.978 10.18L393.482 10.18C408.734 10.18 419.522 17.527 419.522 26.92C419.522 34.825 412.082 41.521 400.922 43.846V45.427L430.496 79H415.523L387.065 45.148H381.764V73.885L389.018 79H362.978ZM381.764 12.133V43.195H390.878C401.294 43.195 407.618 36.499 407.618 27.292C407.618 18.271 401.48 12.133 391.529 12.133H381.764ZM444.893 79L453.356 73.885V12.133L441.452 12.133L426.293 31.942L429.455 11.947V10.18L488.882 10.18V11.947L492.044 31.942L476.885 12.133L464.981 12.133V73.885L473.444 79H444.893ZM11.2716 95.111H20.6646L3.36655 111.758H14.9916L14.9916 124.499H2.34355L2.34355 111.758L11.2716 95.111ZM27.6396 95.111H37.0326L19.8276 111.758H31.3596L31.3596 124.499H18.7116L18.7116 111.758L27.6396 95.111ZM39.6576 167L46.8186 161.885L46.8186 103.295L39.6576 98.18L66.9066 98.18L58.4436 103.295L58.4436 128.963L90.0636 128.963V103.295L81.6936 98.18H108.943L101.782 103.295L101.782 161.885L108.943 167L81.6936 167L90.0636 161.885L90.0636 130.823L58.4436 130.823L58.4436 161.885L66.9066 167H39.6576ZM112.496 167L119.657 161.885L119.657 103.202L112.496 98.18L139.187 98.18L131.282 103.202V128.963H135.002L166.343 98.18H180.2L141.698 125.243L184.664 167H168.389L131.282 130.451V161.885L138.536 167H112.496ZM212.124 168.116C204.591 168.116 195.198 166.628 189.432 164.489V162.908L186.549 141.89C192.966 157.607 202.359 166.256 213.426 166.256C221.331 166.256 226.818 161.234 226.818 153.701C226.818 134.171 187.944 140.588 187.944 116.501C187.944 105.155 197.988 96.692 211.752 96.692C218.169 96.692 225.516 98.366 230.817 101.156V102.737L233.607 120.5C227.004 106.271 219.006 98.645 209.52 98.645C201.801 98.645 196.221 103.853 196.221 111.014C196.221 129.056 235.095 123.104 235.095 147.935C235.095 159.56 225.981 168.116 212.124 168.116ZM239.371 167L246.532 161.885V103.202L239.371 98.18H266.062L258.157 103.202V128.963H261.877L293.218 98.18H307.075L268.573 125.243L311.539 167H295.264L258.157 130.451V161.885L265.411 167L239.371 167ZM317.792 124.964L308.399 124.964L325.604 108.317H314.072V95.576H326.72V108.317L317.792 124.964ZM334.16 124.964H324.767L342.065 108.317H330.533V95.576H343.088V108.317L334.16 124.964ZM423.609 167H367.065L374.226 161.42V103.76L367.065 98.18L420.354 98.18V99.947L422.958 118.268L409.38 100.133L385.851 100.133V130.172H400.359L407.799 118.175V144.122L400.359 132.032H385.851V165.047H412.449L426.12 144.401L423.609 165.233V167ZM458.546 167L430.367 167L437.528 161.42V103.76L430.367 98.18H458.546C481.238 98.18 498.164 113.06 498.164 132.032C498.164 151.655 481.238 167 458.546 167ZM449.153 100.133V165.047H457.895C474.077 165.047 485.423 151.376 485.423 132.032C485.423 113.246 474.077 100.133 457.988 100.133H449.153ZM503.023 167L510.184 161.885V103.295L503.023 98.18H529.063L521.809 103.295V161.885L529.063 167H503.023ZM551.697 167L560.16 161.885V100.133H548.256L533.097 119.942L536.259 99.947V98.18L595.686 98.18V99.947L598.848 119.942L583.689 100.133L571.785 100.133V161.885L580.248 167H551.697ZM602.925 167L610.086 161.885V103.295L602.925 98.18H628.965L621.711 103.295V161.885L628.965 167L602.925 167ZM668.805 168.116C649.926 168.116 633.744 151.934 633.744 132.032C633.744 112.595 649.74 96.692 668.805 96.692C687.87 96.692 703.959 112.595 703.959 132.032C703.959 151.934 687.777 168.116 668.805 168.116ZM668.805 166.07C682.662 166.07 691.311 153.515 691.311 132.032C691.311 111.479 682.848 98.738 668.805 98.738C654.948 98.738 646.299 111.2 646.299 132.032C646.299 153.236 654.855 166.07 668.805 166.07ZM771.177 103.76V169.883L719.655 109.712H718.539V161.42L728.397 167H706.356L716.214 161.42V105.62L708.96 98.459L724.77 97.157L767.55 147.191H768.759V103.76L758.901 98.18H781.035L771.177 103.76Z" fill="#FCFAF2"/>
<path d="M290.664 266V191.555H304.426L324.586 203.488C328.547 205.875 331.442 204.098 331.442 199.527V191.555H345.203V266H331.442V226.898C331.442 223.801 330.325 221.617 327.582 220.043L311.282 210.344C307.321 208.059 304.426 209.734 304.426 214.305V266H290.664ZM391 267.371C373.531 267.371 361.852 256.555 361.852 240.203V217.199C361.852 201 373.531 190.184 391 190.184C408.469 190.184 420.098 201 420.098 217.199V240.203C420.098 256.555 408.469 267.371 391 267.371ZM375.613 239.289C375.613 248.836 381.758 255.184 391 255.184C400.242 255.184 406.387 248.836 406.387 239.289V218.266C406.387 208.719 400.242 202.371 391 202.371C381.758 202.371 375.613 208.719 375.613 218.266V239.289ZM436.797 266V191.555L450.558 191.555V206.535C450.558 209.836 453.047 212.324 456.347 212.324H471.785C475.086 212.324 477.574 209.836 477.574 206.535V191.555H491.336V266H477.574V229.793C477.574 226.492 475.086 224.004 471.785 224.004H456.347C453.047 224.004 450.558 226.492 450.558 229.793V266H436.797Z" fill="#95FE1A"/>
<path d="M263.178 263.719C263.178 266.715 264.448 268.746 267.952 268.746H275.061V276.82H254.291L254.291 181.555H275.061V189.578H267.952C264.448 189.578 263.178 191.609 263.178 194.605V263.719ZM520.771 194.605C520.771 191.609 519.502 189.578 515.998 189.578H508.888V181.504H529.658V276.77H508.888V268.746H515.998C519.502 268.746 520.771 266.715 520.771 263.719V194.605Z" fill="#95FE1A"/>
<path d="M490.916 70.593V68.8182H499.278V70.593H496.161V79H494.033V70.593H490.916ZM500.655 68.8182H503.31L506.114 75.6591H506.234L509.038 68.8182H511.692V79H509.604V72.3729H509.52L506.885 78.9503H505.463L502.828 72.348H502.744V79H500.655V68.8182Z" fill="#FCFAF2"/>
</svg>
